<?xml version="1.0" encoding="utf-8"?>
<!-- Generator: Adobe Illustrator 26.5.0, SVG Export Plug-In . SVG Version: 6.00 Build 0)  -->
<svg version="1.1" id="Layer_1" xmlns="http://www.w3.org/2000/svg" xmlns:xlink="http://www.w3.org/1999/xlink" x="0px" y="0px"
	 viewBox="0 0 1280 720" style="enable-background:new 0 0 1280 720;" xml:space="preserve">
<g>
	<g>
		<path d="M312.1,485.35c-1.99,0.95-4.22,1.59-5.91,2.91c-4.29,3.36-12.61,0.37-14.07-5.25c-1.63-6.28,2.32-12.47,8.58-14.29
			c1.84-0.54,3.41-2.44,4.8-3.99c2.73-3.05,5.02-6.52,7.95-9.34c1.33-1.29,3.68-1.71,5.66-2.1c4.24-0.83,4.31-4.74,5.34-7.52
			c3.09-8.41,5.67-17,8.37-25.55c0.65-2.05,0.84-4.23,1.46-6.29c3.48-11.61,6.97-23.21,10.56-34.78c1.88-6.09,4.24-12.04,5.88-18.18
			c2.01-7.49,3.46-15.12,5.23-22.68c1.27-5.43,2.66-10.83,4.2-17.08c-3.47,0.7-6.19,0.93-8.67,1.81
			c-5.22,1.85-10.29,4.14-15.49,6.06c-2.33,0.86-4.88,1.1-7.21,1.96c-1.54,0.57-2.79,1.86-4.28,2.59c-3.13,1.53-6.3,2.99-9.52,4.32
			c-1.84,0.76-3.84,1.1-5.7,1.82c-4.54,1.77-9.07,3.58-13.54,5.52c-1.63,0.71-2.99,2-4.61,2.75c-5.01,2.31-10.05,4.54-15.13,6.69
			c-2,0.85-4.14,1.38-6.38,2.11c-0.21-0.29-0.74-1.02-1.88-2.61c-0.04,8.83-6.79,9.63-11.82,11.98c-7.06,3.3-13.79,6.86-19.49,12.37
			c-2.85,2.75-6.48,4.79-10.01,6.69c-0.95,0.51-2.83-0.6-4.25-1.09c-4.38-1.52-7.82-4.2-9.29-8.69c-1.25-3.82,3.06-7.63,7.06-8.06
			c2.29-0.25,4.86-2.74,6.32-4.89c3.15-4.64,8.14-4.83,12.68-6.09c1.75-0.49,3.77-0.25,5.63-0.04c3.07,0.35,5.27-0.73,7.82-2.57
			c3.87-2.79,8.51-4.52,12.7-6.63c-2.15-1.3-4.87-2.16-6.31-4.02c-1.5-1.92-3.06-5.47-2.23-7.09c1.09-2.12,4.35-3.48,6.95-4.36
			c3.7-1.26,8.35-0.78,11.31-2.86c3.75-2.64,7.45-1.12,11.06-1.94c0.54-0.12,1.23,0.63,1.89,0.75c1.13,0.2,2.55,0.68,3.39,0.21
			c2.88-1.59,5.65-3.4,8.28-5.37c3.66-2.76,4.72-2.55,6.59,1.78c0.2,0.47,0.49,0.9,1.29,1.83c-0.78-5.24,2.15-4.61,5.28-4.61
			c6.13,0,11.99-1.17,17.65-4.07c5.58-2.86,11.81-4.43,17.57-6.97c5.07-2.24,10.29-4.51,14.62-7.84c2.02-1.56,1.93-5.71,3.04-8.6
			c3.15-8.19,2.88-17.52,8.32-24.96c0.3-0.42,0.04-1.24,0.07-1.87c0.39-8.6,1.63-16.99,4.49-25.22c1.19-3.43,3.38-6.92,2-11.29
			c-0.47-1.49,2.3-4,3.21-5.44c-0.15-1.97-0.49-3.51-0.34-4.99c0.53-5.02,1.1-10.03,1.93-15.01c0.37-2.23,1.41-4.35,2.44-7.4
			c-2.3-0.78-5.26-1.79-8.23-2.79c0.03,5.63-6.27,8.4-14.66,6.31c-1.44,4.9-10.98,8.71-17.51,6.77c0.12-1.28,0.25-2.63,0.4-4.23
			c-1.36,0-2.51,0-4.33,0c4.23,3.6,1.86,5.21-1.09,6.77c-3.71,1.97-7.31,3.26-11.85,3.1c-3.69-0.13-7.58,2.05-11.18,3.65
			c-4.78,2.12-9.38,4.67-14.35,7.19c-0.83-2.2-1.32-3.5-1.87-4.93c-1.02,0.1-2.1,0.48-2.98,0.21c-1.34-0.41-2.54-1.28-3.79-1.96
			c0.89-0.94,1.71-1.96,2.68-2.81c0.75-0.66,1.9-0.93,2.48-1.68c1.92-2.47,3.68-4.47,7.02-1.78c0.59,0.48,2.75-0.15,3.55-0.93
			c4.92-4.76,10.81-6.31,17.49-7.41c6.96-1.14,13.72-4.17,20.24-7.08c9.77-4.37,19.95-7.2,30.37-9.24
			c7.71-1.51,10.36-4.19,10.81-12.16c0.05-0.97,0.16-1.94,0.27-3.18c1.51,0.61,2.74,1.11,3.97,1.6c-7.48-8.93-2.53-16.58,2.78-24.39
			c0.55,3.24,1.1,6.47,1.77,10.37c-1.56,0.29-3.06,0.46-4.49,0.87c-0.59,0.17-1.04,0.87-1.55,1.32c0.46,0.41,0.9,0.85,1.37,1.24
			c0.79,0.64,1.6,1.25,2.81,2.18c3.68-1.67,3.05-6.17,4.26-9.98c1.38-0.54,2.91-1.13,4.97-1.93c-1.37,6.4-2.77,12.5-3.93,18.64
			c-0.27,1.43-0.26,3.53,0.58,4.4c1,1.03,3.04,1.47,4.62,1.43c1.79-0.04,3.6-0.8,5.34-1.4c3.14-1.08,6.22-2.34,9.36-3.39
			c1.03-0.35,2.19-0.27,3.28-0.44c2.69-0.43,5.48-0.56,8.04-1.39c11.3-3.69,22.5-7.61,34.28-9.76c4.47-0.81,8.52-3.76,12.93-5.21
			c4.7-1.55,9.59-2.6,14.44-3.65c10.99-2.38,22.16-4.16,32.03-10.11c0.24-0.14,0.55-0.16,0.84-0.21c9.13-1.38,18.28-2.7,27.4-4.19
			c1.96-0.32,4.18-0.78,5.66-1.96c5.27-4.17,11.81-3.31,17.71-4.88c7.05-1.87,14.29-3.01,21.38-4.76
			c14.48-3.58,28.94-7.17,43.87-8.55c7.13-0.66,14.18-2.23,21.29-3.16c4.94-0.64,9.75-1.47,14.61-2.85c6-1.71,12.46-1.75,18.67-2.78
			c6.97-1.15,13.86-2.71,20.83-3.88c4.06-0.68,8.2-0.88,12.28-1.46c3.35-0.47,6.65-1.43,10.02-1.72
			c11.18-0.97,22.39-1.75,33.32,1.75c1.01,0.32,1.67,2.11,2.23,3.34c0.39,0.85,0.05,2.08,0.52,2.84c2.72,4.43,0.94,8.19-2.05,11.29
			c-4.68,4.87-9.78,9.34-14.7,13.96c-0.2,0.19-0.55,0.46-0.74,0.4c-6.96-2.1-10.2,4.74-15.59,6.53c-4.2,1.4-8.02,3.96-12,6.01
			c-0.12,0.06-0.28,0.17-0.31,0.29c-1.47,5.49-6.36,4.99-10.42,6.18c-1.59,0.46-2.86,2.04-4.23,3.17c-0.64,0.52-1.08,1.41-1.79,1.73
			c-7.36,3.3-14.77,6.47-22.13,9.78c-12.44,5.59-25.23,10.57-37.13,17.14c-8.01,4.42-16.58,7.32-24.63,11.45
			c-4.8,2.46-9.8,4.7-14.48,7.05c-7.05,3.54-14.36,5.13-21.6,7.52c-5.11,1.69-9.84,4.52-14.79,6.72
			c-7.68,3.42-15.33,6.92-23.13,10.05c-6.67,2.67-13.66,4.59-20.28,7.37c-4.35,1.83-8.09,5.92-12.48,6.61
			c-4.54,0.71-5.68,5.06-9.42,5.96c-3.75,0.9-7.55,1.67-11.22,2.82c-3.1,0.97-6.03,2.47-9.09,3.59c-1.94,0.71-4.07,0.94-5.97,1.74
			c-3.77,1.59-7.46,3.4-11.15,5.17c-5.1,2.43-10.26,4.74-15.23,7.41c-6.08,3.27-13.38,4.04-18.43,9.61
			c-1.31,1.45-4.69,0.83-6.92,1.66c-6.94,2.59-13.79,5.41-20.65,8.19c-0.63,0.25-1.11,0.86-1.93,1.52
			c3.71,2.38,7.28,0.55,10.65,0.18c4.84-0.54,9.65-1.61,14.38-2.8c4.25-1.07,8.36-2.68,12.58-3.9c3.72-1.07,7.49-1.96,11.26-2.84
			c1.94-0.46,4.03-0.49,5.88-1.17c2.91-1.07,4.07-0.26,4.01,3.09c-0.06-4.76,2.97-4.96,6.43-5.6c8.65-1.6,17.44-3.07,25.71-5.94
			c8.61-2.99,17.45-3.53,26.25-4.84c11-1.63,22.04-3.03,33.04-4.63c7.99-1.16,15.94-2.58,23.94-3.71
			c8.24-1.16,16.66-1.44,24.72-3.31c9.07-2.11,18.08-1.46,27.16-1.67c9.17-0.21,18.33-0.87,27.48-1.51
			c7.97-0.56,14.27,2.72,19.73,8.09c4.45,4.38,5.1,10.2,1.08,15.2c-2.65,3.3-6.13,5.96-9.33,8.8c-2.44,2.16-4.93,4.3-7.61,6.14
			c-2.02,1.38-4.51,2.07-6.55,3.43c-1.67,1.11-2.9,2.85-4.47,4.13c-1.34,1.08-2.82,2.56-4.36,2.71c-5.37,0.53-9.84,2.67-14.14,5.84
			c-3.19,2.35-7,3.84-10.5,5.77c-5.99,3.3-11.83,6.88-17.96,9.89c-4.88,2.39-9.95,4.66-15.19,5.97c-5.24,1.31-9.29,4.52-13.92,6.76
			c-6.09,2.94-12.28,5.66-18.45,8.44c-0.51,0.23-1.49-0.01-1.66,0.3c-3.23,5.79-10.63,4.7-14.9,9.16c-2.16,2.26-6.28,2.55-9.33,4.09
			c-4.96,2.49-9.51,6.41-14.72,7.64c-6.38,1.51-10.58,7.38-17.83,7.19c-3.39-0.09-7.03,2.96-10.27,5.04
			c-11.15,7.14-23.73,11.09-35.66,16.5c-8.88,4.03-17.53,8.57-26.34,12.74c-13.66,6.48-27.41,12.78-41.05,19.3
			c-2.69,1.29-4.98,3.39-7.62,4.81c-3.09,1.66-6.43,2.85-9.55,4.47c-6.56,3.42-12.96,7.16-19.58,10.43
			c-4.01,1.98-8.34,3.34-12.51,5.01c-0.4,0.16-0.87,0.55-1,0.93c-1.18,3.44-3.68,4.86-7.17,5.2c-0.9,0.09-2.09,1.1-2.48,1.98
			c-2.95,6.76-5.83,13.56-8.47,20.44c-0.63,1.65,0.04,3.75-0.43,5.51c-1.44,5.45-3.32,10.79-4.65,16.27
			c-1.04,4.27-1.31,8.73-2.31,13.01c-0.73,3.14-2.09,6.13-3.21,9.17c-0.19,0.52-0.75,0.95-0.83,1.47
			c-0.64,4.02-1.06,8.07-1.86,12.05c-0.44,2.17-1.52,4.21-2.28,6.31c-0.36,1-0.71,2.02-0.98,3.05c-2.4,9.29-3.58,18.88-8.02,27.65
			c-1.68,3.32-1.38,7.57-2.68,11.15c-2.25,6.2-0.2,13.51-5.09,19.01c-0.68,0.76-1.02,2.21-0.88,3.25c0.49,3.52-1.38,4.91-4.35,5.91
			c-7.05,2.36-13.2-2.48-12.93-10.07c0.19-5.48,1.58-10.67-0.47-16.59c-1.35-3.92,1.88-9.68,3.78-14.32
			c0.66-1.61,3.35-2.91,5.34-3.34c5.64-1.23,7.76-5.53,9.36-10.13c1.31-3.76,1.98-7.76,2.78-11.68c1.2-5.89,2.2-11.82,3.43-17.71
			c0.41-1.96,1.32-3.81,1.86-5.74c2.16-7.63,4.25-15.27,6.4-22.9c1.19-4.24,2.45-8.46,3.67-12.7
			C312.94,486.36,312.52,485.86,312.1,485.35z M445.74,178.62c-2.35,1.05-4.05,2.05-5.9,2.57c-1.48,0.42-3.2-0.03-4.68,0.39
			c-9.24,2.69-18.45,5.45-27.64,8.31c-5.99,1.87-8.54,5.63-8.87,12.06c-0.2,3.86-0.43,7.78-1.24,11.54
			c-0.84,3.92-2.59,7.63-3.57,11.53c-1.16,4.64-1.93,9.38-3.02,14.82c-1.03,0.1-3.13,0.31-5.23,0.52c0.12,0.39,0.24,0.77,0.36,1.16
			c1.63,0.09,3.25,0.19,4.26,0.24c-0.43,4.68-0.51,8.86-1.31,12.9c-0.51,2.56-2.11,4.9-3.43,7.79c0,0.76,0.38,2.58-0.06,4.18
			c-2.64,9.61-5.47,19.16-8.24,28.73c0.56,0.43,1.12,0.85,1.68,1.28c2.02-1.36,4.19-2.54,6.02-4.12
			c6.53-5.63,16.59-4.34,22.35-11.43c0.23-0.29,0.8-0.31,1.2-0.46c5.44-2.04,10.93-3.97,16.31-6.15c8.93-3.61,17.8-7.39,26.69-11.09
			c4.05-1.69,8.58-2.72,12.03-5.24c3.49-2.55,6.85-3.47,10.47-3.11c0.26-0.86,0.27-2.07,0.78-2.34c6.28-3.38,12.42-7.17,19.02-9.78
			c7.95-3.14,16.53-4.7,24.43-7.94c11.18-4.59,21.87-10.36,33-15.09c4.74-2.01,10.04-2.69,13.73-3.63c1.96-1.74,3-3.24,4.41-3.84
			c10.61-4.49,21.27-8.86,31.96-13.13c4.9-1.96,9.95-3.56,14.9-5.4c4.61-1.71,9.83-2.63,13.67-5.43
			c9.51-6.95,20.31-10.91,31.08-15.02c1.7-0.65,3.87-0.09,5.29-0.09c0.8-1.46,1.24-3.32,2.42-4.17c1.91-1.37,4.36-1.96,6.48-3.07
			c12.71-6.65,26.06-12.11,37.69-20.75c2.14-1.59,5.22-1.92,7.32-3.54c3.85-2.96,9.3-3.44,12.13-8c0.33-0.53,1.92-0.22,2.89-0.44
			c0.94-0.22,1.97-0.43,2.74-0.97c4.86-3.36,9.67-6.8,14.47-10.25c1.89-1.36,3.7-2.81,6.68-5.09c-3.36-0.97-5.32-1.96-7.33-2.05
			c-5.72-0.26-11.45-0.27-17.17-0.13c-1.6,0.04-3.2,0.87-4.76,1.46c-1.46,0.54-2.82,1.63-4.3,1.8c-11.33,1.32-22.69,2.36-34.01,3.75
			c-3.5,0.43-7.9,0.65-10.11,2.79c-3.32,3.21-6.06,2.91-9.66,1.72c-1.31-0.44-2.89-0.45-4.28-0.22
			c-11.56,1.95-23.13,3.88-34.65,6.06c-11.16,2.11-22.76,2.34-33.18,7.67c-0.59,0.3-1.43,0.05-2.15,0.15
			c-5.51,0.71-11.05,1.3-16.53,2.23c-3.51,0.6-6.97,1.61-10.4,2.63c-4.44,1.32-8.79,3.89-13.23,4c-5.89,0.15-11.11,1.93-16.54,3.58
			c-3.64,1.11-7.42,1.77-11.14,2.63c-6.02,1.39-12.77,1.51-17.87,4.47c-7.59,4.39-16.13,4.79-23.92,8.02
			c-7.08,2.94-14.71,4.54-22.1,6.71c-1.09,0.32-2.22,0.46-3.32,0.73c-4.21,1.02-8.41,2.1-12.63,3.06
			C448.34,178.51,446.86,178.51,445.74,178.62z M341.21,440c0.87-0.26,2-0.41,2.94-0.91c9.01-4.75,17.96-9.62,27-14.32
			c3.76-1.95,7.75-3.45,11.51-5.4c3.67-1.91,7.07-4.32,10.76-6.17c4.87-2.45,9.96-4.47,14.87-6.84c7.09-3.43,14.07-7.1,21.19-10.47
			c2.79-1.32,5.9-1.94,8.74-3.16c3.01-1.29,5.8-3.12,8.84-4.36c4.83-1.96,10.2-2.94,14.58-5.59c5.18-3.13,9.88-6.86,16.2-7.34
			c0.55-0.04,1.11-0.28,1.62-0.53c3.92-1.99,7.83-4.02,11.75-6.01c5.24-2.67,10.48-5.33,15.74-7.96
			c7.11-3.56,14.11-7.36,21.38-10.57c7.08-3.13,14.93-4.8,21.53-8.67c8.07-4.73,15.67-10.42,24.45-13.72
			c9.07-3.41,15.89-11.52,26.21-12.2c0.79-0.05,1.5-1.27,2.24-1.95c0.84-0.78,1.54-1.82,2.53-2.3c4.01-2,8.05-3.94,12.18-5.69
			c8.71-3.7,15.7-10.75,25.16-12.98c0.38-0.09,0.66-0.55,1.01-0.79c2.46-1.71,4.99-3.33,7.38-5.12c6.44-4.83,15.23-6.59,19.2-14.65
			c0.62-1.25,1.28-2.48,1.92-3.71c-1.49-0.68-2.94-1.75-4.5-1.96c-3.2-0.44-6.47-0.5-9.71-0.56c-6.73-0.14-13.46-0.11-20.19-0.31
			c-3-0.08-6.06-1.06-8.99-0.7c-7.29,0.89-14.49,2.51-21.77,3.44c-5.9,0.75-11.94,0.52-17.79,1.46c-6.51,1.05-12.92,4.33-19.32,4.16
			c-11.59-0.3-22.22,3.48-33.28,5.43c-8.48,1.5-17.01,2.72-25.49,4.23c-4.19,0.74-8.37,2.85-12.45,2.58
			c-6.93-0.45-12.56,2.65-18.65,4.67c-1.6,0.53-3.44,0.32-5.16,0.56c-1.55,0.22-3.12,0.45-4.6,0.92c-6.11,1.9-12.11,4.23-18.31,5.71
			c-4.24,1.01-8.76,0.89-13.15,1.26c-0.6-1.14-1.2-2.29-1.8-3.43c-0.3,0.08-0.61,0.17-0.91,0.25c0.15,1.54,0.3,3.09,0.45,4.65
			c-3.43,0.76-7.01,0.78-9.72,2.33c-5.56,3.19-11.24,4.67-17.63,5.3c-6.25,0.62-12.36,2.97-18.44,4.86
			c-4.22,1.31-8.3,4.48-12.41,4.44c-8.86-0.1-2.38,7.57-5.81,9.86c-0.1,0.07-0.13,0.25-0.18,0.39c-3.82,11.06-7.7,22.11-11.38,33.21
			c-0.44,1.33,0.56,3.09,0.23,4.5c-0.75,3.25-1.28,6.8-3.02,9.51c-2.83,4.43,0.25,13.42-10.05,12.27c0.17,0.43,0.33,0.85,0.5,1.28
			c1.54,0.22,3.09,0.44,6.08,0.86C349.62,406.24,343.48,422.33,341.21,440z M330.72,326.29c0.42,0.3,0.83,0.6,1.25,0.9
			c1.69-1.77,3.43-3.51,4.96-5.41c0.07-0.09-1.64-1.62-3.19-3.13C332.49,321.82,331.61,324.05,330.72,326.29z M307.19,220.24
			c0.66-0.4,1.33-0.79,1.99-1.19c-1.36-1.98-2.71-3.97-4.07-5.95c-0.58,0.37-1.16,0.74-1.74,1.12
			C304.64,216.23,305.91,218.24,307.19,220.24z"/>
		<path d="M898.17,236.09c-1.85,0.71-4.15,0.94-5.46,2.21c-4.78,4.64-11.48,5.88-17.12,2.69c-3.05-1.72-5.03-9.07-3.84-13.95
			c2.76-11.27,8.75-20.54,16.14-29.46c3.4-4.11,7.59-6.89,11.35-10.17c3.19-2.77,7.39-6.61,12.63-4.28c2.1,0.93,4.63,2.72,5.26,4.67
			c0.98,3.06-0.03,6.42-3.66,7.75c-1.73,0.64-3.73,0.55-5.5,1.12c-1.77,0.58-3.75,1.22-5.04,2.46c-4.05,3.88-8.37,7.68-11.55,12.23
			c-3.32,4.74-5.53,10.28-8,15.58c-0.42,0.91,0.14,3.32,0.45,3.36c1.6,0.19,3.66,0.4,4.85-0.42c5.79-3.97,11.9-7.72,16.82-12.62
			c3.62-3.61,6.45-8.59,8.12-13.48c3.37-9.9,10.83-16.91,16.32-25.29c2.41-3.68,6.5-3.74,10.19-2.93c3.88,0.86,3.08,4.77,3.55,7.6
			c0.14,0.83-0.92,1.96-1.61,2.8c-2.55,3.1-5.33,6.01-7.73,9.21c-3.96,5.31-8.28,10.47-11.33,16.28
			c-3.11,5.92-4.89,12.54-7.21,18.87c-1.46,4-3.55,7.93-4.09,12.06c-0.82,6.37-5.27,10.7-7.55,16.15
			c-2.44,5.82-3.75,12.09-5.8,18.09c-1.02,2.99-2.72,5.75-3.82,8.73c-0.67,1.81-0.66,3.86-1.19,5.74c-0.42,1.48-1.16,2.86-1.81,4.27
			c-1.92,4.14-3.9,8.25-5.77,12.41c-0.34,0.76-0.15,1.75-0.49,2.52c-2.08,4.73-3.63,9.49-3.72,14.82c-0.03,1.88-0.32,5.18-3.86,5.32
			c-0.31,0.01-0.77,0.54-0.87,0.91c-1.21,4.46-2.36,8.94-3.55,13.4c-0.72,2.72-0.61,5.42-3.4,7.67c-3.66,2.95-4.11,7.64-3.2,13.2
			c3.38-2.8,6.49-5.14,9.34-7.76c12.46-11.51,24.74-23.21,37.28-34.63c6.76-6.16,13.29-12.91,20.99-17.64
			c13.15-8.07,22.45-20.94,36.79-27.61c7.38-3.43,13.31-9.89,20.05-14.77c6.38-4.62,12.95-8.99,19.46-13.44
			c7.93-5.41,15.77-10.96,23.87-16.1c5.36-3.4,11.25-5.97,16.65-9.32c7.54-4.68,14.76-9.89,22.29-14.59
			c5.96-3.73,12.22-6.98,18.28-10.55c5.44-3.21,10.73-6.67,16.2-9.83c6.03-3.48,12.1-6.91,18.32-10.04
			c6.67-3.36,13.63-6.16,20.26-9.6c2.29-1.19,3.81-3.77,5.96-5.32c4.13-2.97,8.24-6.11,12.79-8.3c2.48-1.2,5.84-0.79,8.79-0.74
			c2.28,0.04,4.54,0.67,7.2,1.1c0.45,3.72,0.85,7.7,1.45,11.65c0.59,3.84-1.26,5.83-4.63,7.07c-1.1,0.4-1.98,1.41-3.52,2.57
			c-2.33,0.36-5.69,0.72-8.98,1.4c-5.91,1.23-11.81,2.51-17.63,4.08c-2.7,0.73-5.3,2.02-7.76,3.39
			c-8.02,4.46-16.02,8.96-23.88,13.69c-3.29,1.98-6.11,4.7-9.32,6.83c-2.14,1.42-4.55,2.43-6.89,3.52
			c-2.81,1.31-5.82,2.25-8.47,3.81c-7.44,4.4-14.33,10-22.2,13.3c-6.74,2.83-11.15,8.3-17.24,11.73
			c-9.1,5.11-17.76,11.01-26.5,16.75c-3.16,2.07-5.9,4.75-8.99,6.94c-7.41,5.26-14.79,10.6-22.43,15.52
			c-6.14,3.95-12.65,7.33-18.99,10.97c-0.98,0.56-1.97,1.13-2.85,1.82c-5.53,4.33-10.9,8.88-16.57,13.02
			c-7.94,5.79-16.07,11.31-22.83,18.55c-0.49,0.52-0.97,1.25-1.59,1.43c-5.95,1.79-9.09,6.86-13.22,10.87
			c-6.59,6.4-13.7,12.28-20.43,18.54c-2.58,2.4-4.63,5.37-7.13,7.88c-7.91,7.98-16.17,15.63-23.81,23.86
			c-5.43,5.85-10.12,12.39-15.03,18.72c-2.19,2.82-4.38,5.71-6.05,8.84c-2.48,4.64-4.77,9.43-6.65,14.34
			c-2.98,7.8-7.05,14.97-11.71,21.82c-3.45,5.07-8,9.57-10.61,15.01c-3.92,8.17-11.84,12.73-16.41,20.19
			c-1.33,2.17-3.07,4.38-5.15,5.75c-4.3,2.82-8.87,2.5-11.14-0.15c-3.5-4.08-3.64-9.24-0.83-13.57c2.72-4.18,4.82-8.76,7.6-12.89
			c4.13-6.14,8.6-12.04,12.95-18.03c2.34-3.23,4.68-6.45,7.08-9.63c6.93-9.18,13.46-18.71,20.99-27.37
			c5.59-6.43,7.5-14.36,11.04-21.61c3.64-7.45,6.65-15.2,9.73-22.91c1.03-2.58,1.2-5.48,2.13-8.11c3.57-10.15,6.52-20.63,11.2-30.26
			c3.66-7.55,6.01-15.29,8.47-23.19c2.54-8.15,6.28-15.93,9.64-23.81c0.77-1.81,2.22-3.31,3.27-5.01c0.58-0.94,1.6-2.27,1.31-2.98
			c-1.73-4.23,1.16-7.02,2.73-10.28c1.23-2.56,2.23-5.25,3.18-7.94c1.72-4.91,3.33-9.85,4.99-14.78
			C899.07,237.24,898.62,236.66,898.17,236.09z"/>
		<path d="M744.92,296.29c0.12-0.01,1.29,0.23,1.62-0.19c2.85-3.59,5.17-7.7,8.42-10.86c2.72-2.64,6.55-4.09,9.74-6.29
			c1.54-1.06,2.65,5.11,4.07-2.44c0.22,0.87,0.44,1.75,0.66,2.62c-1,5.69-1.5,11.54-3.22,17c-0.86,2.73-4.21,4.58-5.96,7.14
			c-3.22,4.7-6.18,9.59-9.09,14.5c-1.26,2.13-2.41,4.4-3.11,6.76c-1.51,5.09-5.41,8.44-10.18,8.28c-4.11-0.14-9.03-4.62-9.87-9
			c-0.05-0.25-0.04-0.51-0.01-0.76c1.1-9.39,1.86-18.83,3.42-28.14c1.39-8.24,3.36-16.41,5.64-24.45
			c3.41-12.01,8.11-23.71,10.68-35.88c1.22-5.79,5.33-9.48,6.88-14.75c1.58-5.36,3.9-10.49,5.79-15.76
			c2.04-5.68,3.91-11.42,5.98-17.08c1.01-2.77,2.1-5.55,3.52-8.12c3.91-7.06,5.93-14.76,8.2-22.4c0.28-0.93,1.85-1.47,2.67-2.07
			c0.09-1.76-0.17-3.96,0.37-5.94c1.88-6.93,4.03-13.78,6.08-20.66c1.79-5.99,3.58-11.99,5.4-17.97c2.15-7.07,4.65-14.05,6.41-21.22
			c2.12-8.64,3.86-17.34,8.27-25.25c0.97-1.75,0.94-4.22,0.86-6.34c-0.11-2.67,0.79-4.93,3.21-5.42c2.23-0.45,5.27-0.4,6.99,0.8
			c5.79,4.04,5.87,7.46,4.48,14.66c-1.59,8.17-5.62,15.17-8.63,22.67c-3.2,7.97-5.7,16.21-8.7,24.25
			c-2.08,5.59-4.73,10.97-6.69,16.6c-2.1,6.05-2.59,12.95-5.81,18.25c-3.07,5.04-3.5,10.41-5.34,15.55
			c-3.16,8.83-6.67,17.54-9.82,26.38c-2.52,7.09-3.58,14.97-7.33,21.29c-5.24,8.81-5.23,19.16-10.16,27.95
			c-3.17,5.66-5.02,12.06-7.42,18.15c-0.26,0.66-0.33,1.42-0.33,2.14c-0.02,4.24,0.07,8.13-3.12,11.95
			c-2.17,2.6-2.39,6.97-3.04,10.63C745.71,287.1,745.45,291.42,744.92,296.29z"/>
		<path d="M845.56,230.44c-0.86,5.18-1.56,9.95-2.46,14.68c-0.95,5.01-2.07,9.99-3.13,14.98c-0.09,0.42-0.15,1.02-0.44,1.19
			c-4.29,2.65-5.37,6.46-4.67,11.26c0.09,0.59-2.33,1.6-3.63,2.34c-1.47,0.83-3.29,1.27-4.43,2.41c-3.86,3.86-7.36,8.08-11.24,11.91
			c-3.74,3.69-11.53,2.6-15.72-0.3c-7.23-4.99-6.92-12.42-7.84-19.58c-0.21-1.65,0.09-3.49,0.62-5.09c1.62-4.88,3.54-9.66,5.2-14.53
			c1-2.93,1.36-6.14,2.67-8.9c3.11-6.54,6.63-12.89,9.96-19.33c0.19-0.37,0.32-0.87,0.24-1.26c-1.24-5.86,2.77-7.37,7.03-9.29
			c2.44-1.1,4.16-3.73,6.31-5.53c3.97-3.32,6.44-3.07,9.92,0.59c1.89,1.98,3.98,3.75,5.98,5.62
			C845.62,216.93,844.26,224.23,845.56,230.44z M830.84,235.97c0.3-0.15,0.6-0.3,0.89-0.44c-1.01-1.99-2.03-3.97-3.04-5.96
			c-1.43,0.85-3.42,1.36-4.19,2.62c-3.09,5.05-6.54,10.09-8.39,15.62c-1.22,3.65-3.67,6.3-5.02,9.6c-1.89,4.58-3.24,9.43-4.35,14.27
			c-0.61,2.65,1.54,3.4,3.57,2.4c1.89-0.93,3.58-2.42,5.07-3.95c5.81-5.97,7.71-14.59,13.82-20.43c1.01-0.97,1.45-2.86,1.56-4.37
			C831,242.23,830.84,239.09,830.84,235.97z"/>
		<path d="M76.93,303.98c-2.99-3.87-2.49-5.07,2.07-6.26c1.64-0.43,3.01-1.88,4.75-3.04c1.5,0.38,3.43,0.87,5.41,1.36
			c4.64-6.32,6.26-7.16,12.33-6.16c0.16-1.03,0.33-2.07,0.59-3.74c2.75,0.41,5.33,0.8,6.87,1.03c1.82-1.79,2.85-3.49,4.32-4.05
			c1.32-0.51,3.46-0.29,4.63,0.51c2.89,1.96,5.29,0.18,6.24-1.51c3.52-6.27,10.02-7.75,15.6-10.74c2.29-1.23,4.56-2.74,7.03-3.3
			c2.51-0.57,5.26-0.13,8.57-0.13c1.03-6.61,6.85-3.95,10.38-3.92c1.36,1.82,2.26,3.02,2.93,3.91c2.36-1.75,4.08-3.03,5.19-3.85
			c-1.19-1.59-2.43-3.24-4.24-5.65c5.26-1.57,9.12-2.84,13.05-3.85c1.74-0.44,3.63-0.24,5.41-0.53c2.66-0.43,5.54,0.56,7.69-2.56
			c1.92-2.8,11.08-2.79,13.73-0.85c1.3,0.95,3.03,1.31,5.15,2.17c-0.09,0.14-0.41,1.29-1.13,1.65c-3.24,1.62-6.55,3.14-9.93,4.44
			c-1.95,0.75-4.14,0.85-6.11,1.55c-4.2,1.48-8.3,3.23-12.49,4.74c-5.39,1.94-10.79,3.83-16.26,5.53c-0.76,0.24-1.9-0.72-2.87-1.13
			c0.17-0.35,0.34-0.7,0.51-1.05c-1.49,0-2.97,0-4.58,0c0.12,0.49,0.28,0.88,0.29,1.27c0.05,1.58,0.05,3.16,0.07,4.74
			c-1.78-0.22-3.65-0.19-5.33-0.72c-2.99-0.94-5.88-2.23-8.81-3.37c-0.28,0.44-0.56,0.88-0.84,1.32c1.23,1.35,2.45,2.69,3.57,3.92
			c-0.74,1.93-1.42,3.71-2.21,5.77c-1.5,0.32-3.37,0.73-6.2,1.34c2.52-2.22,5.14-3.92,2.65-6.99c-5.32,0.46-5.95,1.02-5.55,6.16
			c0.24,3.04-1.38,3.93-3.91,4.6c-3.72,0.99-7.32,2.4-11,3.51c-2.57,0.78-5.19,1.37-8.27,2.16c-0.6,3.42-10.31,7.39-17.56,5.95
			c0.66,1.03,1.16,1.8,1.51,2.34c-5.24,2.57-10.38,5.34-15.75,7.54c-1.26,0.52-3.32-0.91-5.01-1.45
			C78.6,305.75,77.77,304.86,76.93,303.98z"/>
		<path d="M76.93,303.98c0.83,0.89,1.67,1.77,2.5,2.66c1.71,2.92-0.92,4.05-2.43,5.5c-0.51,0.49-1.59,0.4-1.33,0.34
			c-4.78,3.43-8.91,6.4-13.05,9.37c-0.53-0.04-1.07-0.07-1.6-0.11c1.66,0.42,3.32,0.83,4.98,1.25c-0.53,0.41-1.07,0.83-1.6,1.24
			c-6.56,2.1-13.12,4.21-20.35,6.53c-1.79-2.1-4.73-3.04-7.9-0.04c-2.87-3.6-5.06-7.26-3.24-11.8c0.24-0.6,2.3-0.47,3.76-0.72
			c-0.83-1.92-1.47-3.49,2.71-3.4c5.25,0.12,10.55-1.28,16.1-2.07c0.39-4.39,4.15-2.06,7.41-1.69c-1.84-5.25,3.36-4.91,5.11-7.31
			C71.28,299.27,73.99,303.17,76.93,303.98z M63.09,313.92c0.05,0.52,0.09,1.04,0.14,1.57c1.38-0.32,2.96-0.34,4.08-1.06
			c0.79-0.52,1.58-2.7,1.31-2.94C65.2,308.46,65.79,314.89,63.09,313.92z"/>
		<path d="M250,236.85c2.86-1.91,3.2-4.05,0.72-7.86c3.63-0.55,7.07-0.74,10.31-1.64c3.54-0.98,6.87-2.68,10.33-3.96
			c6.29-2.33,12.61-4.58,19.55-6.38c-1.84,3.87-3.07,7.31,0.18,10.28c-5.62,1.97-10.85,3.87-16.13,5.63
			c-1.73,0.57-3.61,1.18-5.36,1.04c-2.27-0.18-3.1-1.74-2.27-4.08c0.05-0.14-2.18-1.65-3.17-1.47c-1.61,0.29-3.07,1.43-4.51,2.17
			c0,2.35,0,4.59,0,7.03c-3.38,0.59-6.78,4.07-9.57-0.88C250.08,236.74,250,236.85,250,236.85z"/>
		<path d="M242.9,242.15c-3.95,4.9-8.42,5.5-15.98,2.46c0.89,1.5,1.78,3,2.88,4.86c-3.44,0.94-6.99,2.04-10.62,2.8
			c-0.68,0.14-1.69-0.98-2.47-1.61c-1.66-1.36-3.27-2.78-5.59-4.76c1.4-0.67,3.28-1.68,5.24-2.49c5.77-2.4,11.56-4.75,17.38-7.04
			c0.66-0.26,1.75-0.36,2.25,0.01c4.73,3.45,2.75-0.9,3.06-2.63c2.13-0.47,4.48-1.71,6.35-1.2c1.79,0.49,3.09,2.8,4.6,4.3
			c0,0,0.08-0.1,0.08-0.11c-0.57,0.67-1.15,1.33-1.72,2c-6.66-2.46-9.99-0.48-9.94,5.6C239.85,243.64,241.37,242.89,242.9,242.15z"
			/>
		<path d="M402.61,144.08c0.49-0.21,0.98-0.43,1.47-0.64c-0.02-0.27-0.04-0.55-0.06-0.82c-1.06,0.07-2.16-0.04-3.16,0.25
			c-3.02,0.86-4.91-0.32-4.39-3.28c0.39-2.18,1.62-4.21,2.48-6.31c2.43,1.18,5.84,1.78,7.02,3.72c1.11,1.84-0.04,5.11-0.44,7.71
			c-0.04,0.26-1.8,0.25-2.76,0.37C402.73,144.74,402.67,144.41,402.61,144.08z"/>
		<path d="M822.09,724.72c4.91,0.57,7.49,2.98,7.66,7.03C825.45,731.48,822.18,730.11,822.09,724.72z"/>
		<path d="M89.87,591.3c-1.71-4.08,2.44-6.33,4.2-9.33c-0.95,3.25-1.9,6.49-2.85,9.74C90.77,591.57,90.32,591.44,89.87,591.3z"/>
	</g>
</g>
</svg>
