<svg xmlns="http://www.w3.org/2000/svg" width="997" height="1425" fill="none">
    <path d="M721 40.275c-423.2 230-656.333 912.5-720 1225.005 412 98.83 1179.6 253.4 954 81-282-215.5 295-1593.505-234-1306.005Z"/>
    <path d="M682.643 114.455C282.282 332.187 61.731 978.284 1.5 1274.12c389.765 93.56 1115.94 239.88 902.515 76.67-266.781-204 279.075-1508.5-221.372-1236.335Z"/>
    <path d="M702.187 76.531C290.339 300.568 63.459 965.371 1.5 1269.77c400.949 96.27 1147.96 246.83 928.411 78.9C655.475 1138.76 1217-203.514 702.187 76.531Z"/>
</svg>