<svg width="997" height="1117" viewBox="0 0 997 1117" fill="none" xmlns="http://www.w3.org/2000/svg">
<path d="M721.5 -48.9999C298.3 181 65.1667 863.5 1.5 1176C413.5 1274.83 1181.1 1429.4 955.5 1257C673.5 1041.5 1250.5 -336.5 721.5 -48.9999Z" stroke="white"/>
<path d="M683.143 25.1802C282.782 242.912 62.2307 889.009 2 1184.84C391.765 1278.4 1117.94 1424.72 904.515 1261.52C637.734 1057.51 1183.59 -246.985 683.143 25.1802Z" stroke="white"/>
<path d="M702.687 -12.7434C290.839 211.293 63.9589 876.096 2 1180.49C402.949 1276.76 1149.96 1427.32 930.411 1259.39C655.975 1049.48 1217.5 -292.789 702.687 -12.7434Z" stroke="white"/>
</svg>
