<svg width="1280" height="1396" viewBox="0 0 1280 1396" fill="none" xmlns="http://www.w3.org/2000/svg">
<path fill-rule="evenodd" clip-rule="evenodd" d="M715.918 527.94C695.73 516.711 674.146 510.704 651.912 515.611C630.93 520.241 619.365 537.011 609.275 556.734C606.961 561.257 604.729 565.926 602.478 570.633C602.278 571.052 602.077 571.472 601.876 571.891C599.423 577.021 596.937 582.183 594.298 587.222C589.021 597.298 583.116 606.906 575.578 614.829C568.431 622.34 559.389 628.323 549.819 633.708C545.033 636.401 540.108 638.948 535.216 641.463C534.847 641.653 534.478 641.843 534.109 642.033C529.59 644.355 525.112 646.657 520.798 649.032C502.108 659.326 486.721 670.908 484.872 691.134C483.015 711.451 493.215 728.544 508.225 743.484C521.666 756.862 538.898 768.449 554.626 779.025C556.467 780.263 558.288 781.487 560.08 782.699C587.065 800.949 619.241 806.549 651.762 803.824C676.877 801.72 697.286 788.75 718.477 775.284C722.06 773.007 725.666 770.716 729.321 768.46C739.027 762.47 749.906 757.391 760.889 752.453C762.561 751.702 764.236 750.953 765.909 750.205C775.236 746.036 784.524 741.885 793.157 737.272C813.524 726.388 830.104 713.004 834.8 690.985C839.667 668.157 832.339 646.438 819.512 626.325C806.681 606.207 788.385 587.752 771.41 571.472C754.862 555.602 736.11 539.171 715.918 527.94ZM716.404 527.066C736.713 538.362 755.541 554.868 772.102 570.75C789.078 587.03 807.454 605.558 820.355 625.787C833.258 646.019 840.721 668.01 835.778 691.193C830.987 713.659 814.066 727.232 793.628 738.154C784.961 742.785 775.636 746.953 766.311 751.121C764.639 751.868 762.967 752.616 761.299 753.365C750.316 758.303 739.491 763.359 729.846 769.311C726.215 771.552 722.624 773.835 719.048 776.108C697.868 789.572 677.226 802.694 651.846 804.821C619.161 807.559 586.741 801.937 559.519 783.527C557.729 782.316 555.908 781.092 554.065 779.853C538.349 769.286 521.034 757.643 507.52 744.193C492.416 729.16 481.98 711.79 483.876 691.043C485.777 670.259 501.618 658.454 520.316 648.156C524.643 645.773 529.135 643.465 533.652 641.143C534.021 640.954 534.39 640.764 534.759 640.574C539.651 638.059 544.561 635.519 549.329 632.836C558.867 627.469 567.808 621.544 574.854 614.14C582.298 606.316 588.152 596.801 593.412 586.758C596.042 581.737 598.52 576.59 600.974 571.46C601.175 571.04 601.376 570.62 601.577 570.2C603.826 565.495 606.064 560.814 608.385 556.278C618.485 536.536 630.232 519.371 651.696 514.634C674.253 509.656 696.091 515.768 716.404 527.066Z" fill="black"/>
<path fill-rule="evenodd" clip-rule="evenodd" d="M618.785 406.382C541.461 405.629 461.644 432.153 412.883 492.045C367.368 547.951 364.65 627.636 381.432 697.907C388.178 726.154 406.711 746.368 428.2 765.246C433.943 770.291 439.901 775.243 445.898 780.228C462.307 793.867 479.013 807.753 492.425 824.465C503.943 838.82 513.101 855.87 521.486 873.531C524.992 880.916 528.358 888.396 531.705 895.833C536.376 906.213 541.009 916.509 545.933 926.345C562.822 960.086 582.931 987.979 618.871 993.924C655.152 999.926 686.57 983.649 715.31 959.061C734.994 942.22 753.36 921.538 771.141 901.515C779.338 892.285 787.41 883.194 795.43 874.685C844.043 823.104 892.928 768.477 897.632 697.99C902.617 623.297 872.504 550.182 820.746 496.052C767.82 440.701 695.343 407.127 618.785 406.382ZM412.108 491.414C461.117 431.217 541.269 404.627 618.794 405.382C695.641 406.13 768.37 439.829 821.468 495.36C873.397 549.669 903.635 623.051 898.63 698.057C893.899 768.955 844.73 823.833 796.158 875.371C788.182 883.834 780.133 892.897 771.949 902.113C754.144 922.162 735.697 942.935 715.96 959.821C687.131 984.485 655.419 1000.98 618.708 994.911C582.251 988.88 561.945 960.569 545.038 926.793C540.112 916.952 535.458 906.609 530.775 896.205C527.429 888.768 524.068 881.3 520.583 873.96C512.208 856.319 503.089 839.353 491.645 825.091C478.302 808.464 461.713 794.675 445.328 781.056C439.315 776.058 433.329 771.082 427.54 765.997C406.015 747.088 387.281 726.7 380.46 698.14C363.645 627.734 366.308 547.67 412.108 491.414Z" fill="black"/>
<path fill-rule="evenodd" clip-rule="evenodd" d="M745.499 379.237C637.935 351.364 511.861 373.185 433.218 451.587C354.527 530.038 347.127 653.364 359.617 764.019C370.67 861.946 413.229 960.725 496.589 1013.02C533.042 1035.89 573.699 1036.1 616.073 1029.6C633.429 1026.93 651.052 1023.15 668.785 1019.34C672.701 1018.5 676.623 1017.66 680.548 1016.82C702.237 1012.23 724.028 1007.96 745.58 1006.04C763.823 1004.41 782.024 1003.78 800.04 1003.17L800.952 1003.13C818.663 1002.53 836.191 1001.94 853.429 1000.43C888.491 997.358 922.306 990.515 953.873 972.197C965.236 965.602 977.227 958.953 989.484 952.156C1025.03 932.444 1062.82 911.488 1094.07 887.015C1136.08 854.112 1166.11 814.962 1162.94 764.106C1159.76 712.942 1120.52 684.505 1072.36 660.085C1060.32 653.984 1047.75 648.14 1035.05 642.257L1033.83 641.691C1021.54 635.995 1009.15 630.252 997.057 624.201C972.076 611.699 948.342 597.863 929.34 580.339C902.686 555.757 882.831 523.903 863.374 492.687C857.434 483.157 851.532 473.687 845.484 464.502C819.596 425.182 791.038 391.037 745.499 379.237ZM432.512 450.879C511.461 372.172 637.927 350.329 745.75 378.269C791.675 390.169 820.412 424.603 846.319 463.952C852.399 473.186 858.322 482.688 864.274 492.237C883.717 523.429 903.473 555.123 930.018 579.604C948.916 597.032 972.55 610.818 997.505 623.307C1009.58 629.352 1021.96 635.088 1034.26 640.787L1035.47 641.35C1048.17 647.232 1060.76 653.083 1072.81 659.193C1120.98 683.617 1160.72 712.281 1163.94 764.044C1167.14 815.394 1136.79 854.827 1094.68 887.802C1063.37 912.328 1025.47 933.343 989.908 953.065C977.667 959.854 965.701 966.489 954.375 973.062C922.627 991.485 888.647 998.348 853.516 1001.42C836.252 1002.93 818.701 1003.53 800.999 1004.13L800.075 1004.16C782.055 1004.78 763.88 1005.41 745.669 1007.04C724.181 1008.95 702.441 1013.21 680.755 1017.8C676.838 1018.63 672.921 1019.47 669.009 1020.31C651.274 1024.12 633.614 1027.92 616.225 1030.59C573.772 1037.1 532.818 1036.93 496.057 1013.87C412.342 961.349 369.695 862.225 358.623 764.131C346.128 653.433 353.47 529.679 432.512 450.879Z" fill="black"/>
<path fill-rule="evenodd" clip-rule="evenodd" d="M610.664 455.675C560.454 450.196 505.104 454.277 469.253 489.538C433.226 524.972 426.236 580.566 432.522 630.868C435.293 653.039 446.126 671.143 459.405 688.419C464.37 694.879 469.668 701.213 475.011 707.6C476.815 709.757 478.625 711.92 480.428 714.096C487.567 722.71 494.604 731.52 500.816 740.921C510.129 755.015 517.62 770.97 524.628 787.23C526.789 792.243 528.903 797.283 531.01 802.307C535.745 813.594 540.446 824.802 545.566 835.443C560.364 866.192 578.571 892.001 610.85 900.876C680.304 919.973 762.663 883.398 804.357 824.595C823.701 797.313 827.362 765.225 824.049 731.784C821.253 703.551 813.494 674.411 806.046 646.438C804.669 641.266 803.303 636.135 801.98 631.056C789.977 584.955 759.495 549.729 724.28 517.452C691.182 487.114 655.156 460.529 610.664 455.675ZM468.552 488.825C504.744 453.228 560.506 449.196 610.772 454.681C655.602 459.572 691.83 486.352 724.956 516.715C760.211 549.029 790.87 584.417 802.948 630.804C804.267 635.871 805.632 640.995 807.008 646.162C814.456 674.133 822.24 703.365 825.045 731.686C828.369 765.251 824.711 797.617 805.172 825.173C763.279 884.257 680.513 921.067 610.585 901.84C577.866 892.844 559.49 866.683 544.665 835.876C539.533 825.212 534.816 813.965 530.076 802.665C527.971 797.647 525.862 792.619 523.71 787.626C516.707 771.378 509.244 755.49 499.982 741.472C493.801 732.118 486.792 723.342 479.658 714.734C477.861 712.566 476.056 710.408 474.255 708.255C468.908 701.863 463.591 695.507 458.612 689.029C445.294 671.701 434.334 653.426 431.53 630.992C425.229 580.572 432.194 524.585 468.552 488.825Z" fill="black"/>
<path fill-rule="evenodd" clip-rule="evenodd" d="M685.324 240.475C678.08 240.513 670.864 240.552 663.687 240.573C657.713 240.591 651.713 240.598 645.694 240.606C586.646 240.682 525.737 240.761 468.647 250.115C405.747 260.422 347.536 281.982 301.611 327.166C209.267 418.02 177.202 563.13 207.67 689.091C220.777 743.278 260.809 777.631 307 808.902C317.719 816.159 328.773 823.251 339.895 830.387C376.649 853.969 414.149 878.029 442.806 910.112C463.895 933.723 480.435 962.663 495.338 993.012C502.598 1007.8 509.472 1022.92 516.295 1037.94L516.836 1039.13C523.838 1054.53 530.794 1069.8 538.071 1084.46C567.191 1143.13 601.357 1191.8 663.749 1199.8C726.072 1207.78 776.528 1175.27 821.94 1128.87C844.643 1105.68 866.063 1079.04 887.058 1052.29C890.112 1048.4 893.157 1044.51 896.196 1040.62C914.041 1017.81 931.667 995.276 949.593 975.136C951.079 973.466 952.566 971.796 954.054 970.125C1029.17 885.766 1104.61 801.044 1118.07 689.149C1133.6 559.983 1120.33 416.301 1027.89 325.032C981.855 279.576 923.251 258.359 859.916 248.559C803.579 239.841 743.545 240.163 685.324 240.475ZM860.069 247.57C923.522 257.389 982.355 278.663 1028.6 324.321C1121.37 415.928 1134.61 560.022 1119.06 689.268C1105.56 801.479 1029.93 886.412 954.89 970.69C953.373 972.394 951.856 974.097 950.34 975.801C932.437 995.916 914.833 1018.42 896.987 1041.24C893.947 1045.12 890.901 1049.02 887.845 1052.91C866.85 1079.66 845.4 1106.34 822.655 1129.57C777.171 1176.04 726.417 1208.83 663.622 1200.79C600.676 1192.72 566.303 1143.59 537.175 1084.91C529.89 1070.23 522.927 1054.94 515.926 1039.54L515.387 1038.36C508.563 1023.34 501.693 1008.22 494.44 993.453C479.551 963.13 463.058 934.287 442.06 910.778C413.504 878.807 376.164 854.849 339.433 831.281C328.292 824.132 317.206 817.02 306.439 809.73C260.219 778.439 219.9 743.903 206.698 689.326C176.16 563.077 208.279 417.589 300.91 326.453C347.034 281.073 405.468 259.455 468.485 249.129C525.66 239.76 586.651 239.682 645.685 239.606C651.707 239.598 657.709 239.591 663.684 239.573C670.859 239.552 678.074 239.513 685.319 239.475C743.529 239.162 803.648 238.84 860.069 247.57Z" fill="black"/>
<path fill-rule="evenodd" clip-rule="evenodd" d="M1275.23 674.839C1291.32 529.648 1255.48 375.888 1153.59 271.346C1050.4 165.481 894.352 106.77 749.344 135.243C684.404 147.994 641.794 193.851 602.659 247.293C593.355 259.998 584.251 273.126 575.091 286.335L573.679 288.371C564.043 302.265 554.33 316.229 544.249 329.855C524.087 357.107 502.439 383.027 476.947 404.375C445.911 430.365 408.884 450.647 370.308 468.92C351.912 477.634 333.156 485.894 314.528 494.098L311.82 495.291C292.3 503.889 272.945 512.447 254.301 521.429C179.702 557.369 116.638 600.029 100.088 678.897C83.0341 760.165 110.787 836.397 157.809 906.807C204.834 977.222 271.086 1041.75 330.931 1099.59C389.743 1156.44 454.837 1214.65 525.464 1255.85C596.086 1297.04 672.204 1321.2 753.079 1310C829.809 1299.37 885.137 1251.11 933.641 1190.44C956.92 1161.32 978.613 1129.36 1000.34 1097.35C1001.25 1096.01 1002.16 1094.67 1003.06 1093.34C1025.7 1059.99 1048.45 1026.71 1073.13 996.7C1089.77 976.463 1107.21 956.718 1124.59 937.049C1129.07 931.973 1133.55 926.903 1138.01 921.83C1159.75 897.094 1181.04 872.304 1200.17 846.606C1238.42 795.211 1267.99 740.214 1275.23 674.839ZM1154.3 270.648C1256.46 375.46 1292.33 529.548 1276.23 674.949C1268.96 740.571 1239.27 795.736 1200.97 847.203C1181.82 872.936 1160.51 897.752 1138.76 922.49C1134.3 927.567 1129.81 932.64 1125.33 937.717C1107.96 957.385 1090.53 977.114 1073.9 997.335C1049.26 1027.31 1026.53 1060.55 1003.89 1093.9C1002.98 1095.24 1002.07 1096.58 1001.16 1097.92C979.439 1129.92 957.726 1161.92 934.422 1191.07C885.861 1251.81 830.325 1300.3 753.216 1310.99C672.046 1322.23 595.7 1297.98 524.96 1256.71C454.224 1215.45 389.058 1157.17 330.236 1100.31C270.405 1042.48 204.072 977.881 156.977 907.362C109.879 836.838 81.978 760.329 99.109 678.692C115.764 599.324 179.24 556.482 253.867 520.529C272.529 511.538 291.898 502.973 311.417 494.376L314.116 493.187C332.749 484.98 351.495 476.725 369.88 468.016C408.43 449.756 445.367 429.517 476.305 403.608C501.709 382.334 523.303 356.485 543.445 329.26C553.516 315.648 563.22 301.696 572.857 287.801L574.273 285.76C583.43 272.554 592.54 259.418 601.852 246.702C641.009 193.231 683.814 147.091 749.152 134.262C894.537 105.715 1050.91 164.578 1154.3 270.648Z" fill="black"/>
<path fill-rule="evenodd" clip-rule="evenodd" d="M683.576 328.747C587.842 304.278 483.79 360.359 418.643 434.896C356.746 505.713 347.288 606.513 359.259 699.969C369.19 777.508 419.975 836.451 471.123 895.815C473.725 898.836 476.329 901.857 478.928 904.883C490.944 918.869 502.625 933.739 514.342 948.656C517.408 952.559 520.477 956.466 523.555 960.361C538.4 979.146 553.464 997.664 569.52 1014.27C601.631 1047.49 637.665 1073.02 683.751 1077.76C780.69 1087.72 875.648 1029.02 935.462 951.914C989.61 882.112 996.555 786.33 976.612 700.145C968.523 665.186 945.783 640.07 919.41 616.589C912.393 610.342 905.116 604.208 897.793 598.035C877.621 581.034 857.096 563.733 840.688 542.943C826.381 524.815 814.97 503.761 804.509 482.045C800.082 472.855 795.831 463.559 791.603 454.314C785.826 441.682 780.093 429.144 774.014 417.102C752.975 375.425 727.99 340.098 683.576 328.747ZM417.89 434.238C483.158 359.562 587.569 303.176 683.824 327.778C728.687 339.244 753.847 374.933 774.907 416.652C780.987 428.696 786.741 441.278 792.529 453.934C796.758 463.18 801.005 472.466 805.41 481.611C815.861 503.306 827.235 524.282 841.473 542.323C857.813 563.028 878.221 580.23 898.368 597.211C905.708 603.397 913.014 609.555 920.075 615.842C946.483 639.355 969.424 664.645 977.586 699.92C997.568 786.275 990.65 882.403 936.252 952.527C876.312 1029.8 781.05 1088.77 683.649 1078.75C637.225 1073.98 600.986 1048.26 568.801 1014.97C552.708 998.321 537.618 979.77 522.771 960.981C519.688 957.08 516.616 953.169 513.547 949.263C501.832 934.349 490.17 919.502 478.17 905.534C475.552 902.488 472.929 899.444 470.307 896.4C419.212 837.101 368.238 777.943 358.267 700.096C346.283 606.534 355.713 505.376 417.89 434.238Z" fill="black"/>
<path fill-rule="evenodd" clip-rule="evenodd" d="M614.854 609.423C601.273 609.874 588.703 612.924 578.942 622.181C569.074 631.54 564.493 644.088 562.836 657.732C561.179 671.381 562.454 686.085 564.262 699.704C567.353 722.994 580.555 742.398 597.223 759.117C613.994 775.939 633.131 792.952 656.622 792.421C668.182 792.16 678.027 787.137 687.172 780.18C693.37 775.463 699.207 769.892 705.029 764.335C707.816 761.675 710.6 759.018 713.418 756.459C717.119 753.1 721.058 749.823 725.002 746.542C726.059 745.663 727.116 744.784 728.169 743.903C733.158 739.727 738.061 735.502 742.437 731.026C751.189 722.074 757.79 712.164 758.749 699.731C760.746 673.845 742.85 650.625 722.968 633.56C704.692 617.873 680.787 614.093 656.594 612.193C652.726 611.889 648.789 611.499 644.824 611.105C634.803 610.111 624.599 609.099 614.854 609.423ZM644.991 610.116C648.941 610.508 652.85 610.896 656.672 611.196C680.874 613.097 705.077 616.886 723.62 632.801C743.55 649.908 761.782 673.416 759.746 699.808C758.761 712.578 751.978 722.698 743.152 731.725C738.739 736.239 733.803 740.491 728.811 744.67C727.752 745.556 726.691 746.438 725.632 747.319C721.69 750.598 717.773 753.857 714.091 757.2C711.313 759.722 708.55 762.358 705.773 765.008C699.928 770.587 694.02 776.226 687.777 780.975C678.548 787.998 668.5 793.153 656.644 793.421C632.669 793.962 613.246 776.606 596.515 759.823C579.771 743.028 566.403 723.433 563.271 699.836C561.461 686.198 560.171 671.391 561.844 657.612C563.517 643.828 568.161 631.029 578.254 621.456C588.267 611.959 601.123 608.879 614.82 608.423C624.636 608.097 634.946 609.12 644.991 610.116Z" fill="black"/>
<path fill-rule="evenodd" clip-rule="evenodd" d="M1138.72 833.064C1122.7 789.656 1108.51 745.961 1101.72 702.484C1094.82 658.364 1094.11 613.828 1093.4 569.923C1093.08 549.814 1092.76 529.837 1091.85 510.092C1088.95 447.2 1080.06 386.591 1046.12 331.23C1000.95 257.549 950.597 176.643 889.975 113.421C829.356 50.203 758.515 4.71909 672.37 1.79057C585.44 -1.16457 515.108 42.8579 451.498 103.54C419.695 133.88 389.588 168.369 359.937 203.209C354.933 209.088 349.943 214.977 344.959 220.858C320.416 249.822 296.043 278.584 271.144 304.94C247.598 329.865 221.803 354.501 195.802 379.333C189.795 385.07 183.778 390.818 177.774 396.581C145.777 427.301 114.179 458.493 86.7528 491.092C31.8987 556.293 -6.20556 627.054 2.56116 710.807C11.162 792.974 68.02 846.234 137.581 893.565C158.82 908.016 181.216 921.898 203.772 935.878C218.161 944.797 232.616 953.756 246.877 962.93C283.472 986.469 318.751 1011.39 348.208 1040.58C377.824 1069.92 403.368 1104.15 427.572 1139.48C437.102 1153.38 446.419 1167.45 455.696 1181.46C469.994 1203.05 484.194 1224.49 498.922 1244.97C547.474 1312.46 601.586 1369.15 683.116 1385.01C863.933 1420.18 1086.11 1360.02 1182.42 1203.07C1228.26 1128.36 1214.96 1046.75 1186.71 961.984C1177.68 934.879 1167.13 907.481 1156.5 879.893C1150.51 864.338 1144.5 848.721 1138.72 833.064ZM1187.66 961.668C1215.92 1046.48 1229.36 1128.48 1183.27 1203.59C1086.67 1361.01 863.998 1421.21 682.925 1385.99C601.001 1370.06 546.695 1313.09 498.11 1245.55C483.375 1225.07 469.151 1203.59 454.841 1181.98C445.566 1167.98 436.256 1153.92 426.747 1140.04C402.554 1104.74 377.053 1070.56 347.504 1041.29C318.122 1012.18 282.914 987.3 246.336 963.771C232.107 954.618 217.665 945.666 203.279 936.749C180.704 922.757 158.269 908.851 137.018 894.391C67.4153 847.032 10.2166 793.548 1.56657 710.911C-7.24178 626.76 31.0638 555.732 85.9876 490.448C113.451 457.805 145.083 426.581 177.082 395.86C183.09 390.091 189.111 384.341 195.12 378.602C221.12 353.771 246.891 329.157 270.417 304.254C295.296 277.918 319.648 249.181 344.192 220.218C349.176 214.335 354.169 208.444 359.175 202.561C388.827 167.719 418.963 133.195 450.808 102.816C514.495 42.0606 585.078 -2.17745 672.404 0.791148C758.912 3.73199 829.983 49.4122 890.696 112.729C951.405 176.041 1001.81 257.039 1046.97 330.708C1081.04 386.286 1089.94 447.102 1092.85 510.046C1093.76 529.855 1094.08 549.866 1094.41 569.993C1095.11 613.862 1095.82 658.279 1102.71 702.329C1109.48 745.706 1123.65 789.326 1139.66 832.717C1145.43 848.346 1151.43 863.949 1157.42 879.5C1168.05 907.105 1178.62 934.545 1187.66 961.668Z" fill="black"/>
</svg>
