<svg width="1200" height="630" viewBox="0 0 1200 630" fill="none" xmlns="http://www.w3.org/2000/svg">
<g clip-path="url(#clip0_1_2)">
<rect width="1200" height="630" fill="url(#paint0_radial_1_2)"/>
<g filter="url(#filter0_f_1_2)">
<path fill-rule="evenodd" clip-rule="evenodd" d="M911.924 -106.268C952.09 -91.0537 963.818 -39.5511 994.791 -9.82296C1024.96 19.1337 1091.94 25.0045 1092.19 66.7544C1092.5 117.847 1010.79 134.725 995.958 183.609C985.618 217.69 1031.07 249.552 1026.04 284.812C1020.91 320.73 991.546 347.562 968.56 375.646C940.079 410.443 918.958 477.146 874.48 469.983C821.164 461.397 826.622 361.598 775.383 344.535C726.328 328.2 677.167 406.021 628.66 388.125C588.163 373.185 576.406 314.414 576.983 271.342C577.552 228.85 629.076 200.412 631.742 158.003C634.434 115.175 563.822 69.9108 591.695 37.27C623.012 0.595587 694.248 63.4603 734.803 37.311C773.488 12.3673 751.123 -59.5994 786.872 -88.5781C819.953 -115.394 872.039 -121.375 911.924 -106.268Z" fill="#FED3E4"/>
</g>
<g filter="url(#filter1_f_1_2)">
<path fill-rule="evenodd" clip-rule="evenodd" d="M1411.51 434.232C1396.69 502.749 1347 547.763 1301.61 601.15C1212.65 705.758 1164.5 909.615 1029.86 883.026C898.123 857.01 920.618 655.07 901.227 522.081C888.724 436.334 899.361 353.92 941.687 278.318C985.225 200.549 1044.72 127.898 1131.96 109.949C1224.82 90.8437 1329.51 113.949 1391.44 185.787C1448.49 251.965 1429.99 348.793 1411.51 434.232Z" fill="#EBB1FC" fill-opacity="0.5"/>
</g>
<g filter="url(#filter2_f_1_2)">
<path fill-rule="evenodd" clip-rule="evenodd" d="M207.393 117.127C339.544 142.011 398.51 282.598 470.829 396.123C529.376 488.029 612.852 588.75 572.271 689.908C534.001 785.304 397.111 764.087 305.002 809.484C210.84 855.893 140.949 985.044 41.4871 951.51C-60.5575 917.104 -54.9633 776.011 -93.2203 675.219C-146.444 534.996 -289.707 398.336 -218.591 266.308C-143.455 126.818 51.8556 87.8402 207.393 117.127Z" fill="#F9D3D2"/>
</g>
<g filter="url(#filter3_f_1_2)">
<path fill-rule="evenodd" clip-rule="evenodd" d="M1072.36 68.2249C1166.33 39.4856 1280.25 -3.24768 1352.52 63.3374C1429.23 134.023 1438.4 267.584 1387.63 358.712C1344.06 436.918 1228.76 406.271 1144.54 436.629C1080.14 459.84 1031.33 524.759 964.209 511.333C875.512 493.59 760.771 449.268 756.121 358.933C751.485 268.869 881.132 248.233 947.525 187.2C992.049 146.271 1014.53 85.9127 1072.36 68.2249Z" fill="url(#paint1_linear_1_2)"/>
</g>
<g filter="url(#filter4_f_1_2)">
<path fill-rule="evenodd" clip-rule="evenodd" d="M-136.94 665.474C-186.844 606.149 -125.417 520.583 -98.9901 447.703C-75.9797 384.246 -64.7858 296.098 1.54197 283.57C66.401 271.319 94.2643 363.577 148.691 400.92C190.757 429.783 261.006 422.888 275.768 471.722C291.197 522.762 249.484 571.936 211.787 609.647C177.151 644.297 131.611 656.586 83.2341 664.33C6.98899 676.536 -87.2346 724.564 -136.94 665.474Z" fill="url(#paint2_linear_1_2)" fill-opacity="0.45"/>
</g>
<path fill-rule="evenodd" clip-rule="evenodd" d="M275.553 -196.335C298.466 -248.863 289.366 -316.658 331.089 -355.943C374.534 -396.849 441.33 -420.696 499.442 -407.142C557.563 -393.585 585.836 -329.172 627.801 -286.736C663.601 -250.535 720.019 -225.632 728.571 -175.443C737.276 -124.36 692.647 -80.968 670.877 -33.9432C655.396 -0.501483 630.446 26.4925 618.888 61.4844C600.177 118.131 633.799 203.144 582.504 233.602C534.525 262.091 482.974 188.556 429.051 174.205C384.631 162.384 337.916 172.367 294.602 156.981C239.879 137.542 163.08 128.596 145.156 73.3579C126.651 16.3316 188.628 -35.1998 214.725 -89.1753C232.914 -126.794 258.846 -158.035 275.553 -196.335Z" fill="url(#paint3_linear_1_2)"/>
<path d="M379.356 160.28C391.73 159.427 402.663 159 412.156 159C438.503 159 451.676 167.8 451.676 185.4C451.676 192.013 449.756 197.72 445.916 202.52C442.076 207.213 435.943 210.413 427.516 212.12C435.623 213.08 442.023 215.533 446.716 219.48C451.41 223.427 453.756 230.307 453.756 240.12C453.756 260.707 440.583 271 414.236 271H379.356V160.28ZM392.636 269.4H414.236C423.73 269.4 430.45 266.947 434.396 262.04C438.45 257.027 440.476 249.4 440.476 239.16C440.476 228.92 438.45 222.093 434.396 218.68C430.343 215.267 424.316 213.453 416.316 213.24H392.636V269.4ZM412.156 160.6C405.97 160.6 399.463 160.973 392.636 161.72V211.64H416.316C431.356 211 438.876 202.36 438.876 185.72C438.876 177.613 436.636 171.427 432.156 167.16C427.676 162.787 421.01 160.6 412.156 160.6ZM482.126 271C477.753 271 474.393 270.04 472.046 268.12C469.806 266.2 468.633 264.28 468.526 262.36L468.366 259.64V191H479.566V259.64C479.566 262.733 480.153 265.133 481.326 266.84C482.606 268.44 483.833 269.293 485.006 269.4L486.926 269.72H491.886V271H482.126ZM469.326 173.08C468.046 171.8 467.406 170.2 467.406 168.28C467.406 166.36 468.046 164.76 469.326 163.48C470.606 162.093 472.206 161.4 474.126 161.4C476.046 161.4 477.646 162.093 478.926 163.48C480.313 164.76 481.006 166.36 481.006 168.28C481.006 170.2 480.313 171.8 478.926 173.08C477.646 174.36 476.046 175 474.126 175C472.206 175 470.606 174.36 469.326 173.08ZM517.908 271C513.534 271 510.174 270.04 507.828 268.12C505.588 266.2 504.414 264.28 504.308 262.36L504.148 259.64V191H515.348V259.64C515.348 262.733 515.934 265.133 517.108 266.84C518.388 268.44 519.614 269.293 520.788 269.4L522.708 269.72H527.668V271H517.908ZM505.108 173.08C503.828 171.8 503.188 170.2 503.188 168.28C503.188 166.36 503.828 164.76 505.108 163.48C506.388 162.093 507.988 161.4 509.908 161.4C511.828 161.4 513.428 162.093 514.708 163.48C516.094 164.76 516.788 166.36 516.788 168.28C516.788 170.2 516.094 171.8 514.708 173.08C513.428 174.36 511.828 175 509.908 175C507.988 175 506.388 174.36 505.108 173.08ZM594.386 271H592.306V159H597.746L664.306 262.52V159H666.386V271H654.706L594.386 178.2V271ZM749.23 271C741.977 271 737.017 269.613 734.35 266.84C731.897 264.493 730.67 262.467 730.67 260.76V257.4C725.443 266.893 717.07 271.64 705.55 271.64C692.11 271.64 684.483 265.56 682.67 253.4C682.457 252.12 682.35 250.84 682.35 249.56C682.35 248.173 682.563 246.68 682.99 245.08C683.417 243.48 684.643 241.72 686.67 239.8C690.723 235.96 699.63 233.613 713.39 232.76C716.803 232.44 719.95 232.28 722.83 232.28C725.71 232.28 728.323 232.387 730.67 232.6V206.04C730.457 205.933 730.457 205.453 730.67 204.6C730.883 203.64 730.67 202.467 730.03 201.08C729.497 199.587 728.75 198.147 727.79 196.76C726.83 195.373 725.123 194.2 722.67 193.24C720.217 192.173 717.017 191.64 713.07 191.64C709.123 191.64 704.483 192.387 699.15 193.88C693.923 195.267 690.083 196.653 687.63 198.04L686.99 196.92C696.483 192.547 706.137 190.36 715.95 190.36C726.937 190.36 734.19 192.333 737.71 196.28C740.483 199.373 741.87 202.627 741.87 206.04V259.64C741.87 262.733 742.457 265.133 743.63 266.84C744.91 268.44 746.19 269.293 747.47 269.4L749.23 269.72H754.19V271H749.23ZM708.11 270.36C713.763 270.36 718.83 268.44 723.31 264.6C727.897 260.653 730.35 256.867 730.67 253.24V233.88C727.79 233.667 724.857 233.56 721.87 233.56C718.99 233.56 716.11 233.72 713.23 234.04C705.123 235 699.843 236.813 697.39 239.48C694.937 242.147 693.71 245.827 693.71 250.52C693.71 251.373 693.763 252.333 693.87 253.4C694.83 264.707 699.577 270.36 708.11 270.36ZM779.314 271C774.94 271 771.58 270.04 769.234 268.12C766.994 266.2 765.82 264.28 765.714 262.36L765.554 259.64V191H776.754V259.64C776.754 262.733 777.34 265.133 778.514 266.84C779.794 268.44 781.02 269.293 782.194 269.4L784.114 269.72H789.074V271H779.314ZM766.514 173.08C765.234 171.8 764.594 170.2 764.594 168.28C764.594 166.36 765.234 164.76 766.514 163.48C767.794 162.093 769.394 161.4 771.314 161.4C773.234 161.4 774.834 162.093 776.114 163.48C777.5 164.76 778.194 166.36 778.194 168.28C778.194 170.2 777.5 171.8 776.114 173.08C774.834 174.36 773.234 175 771.314 175C769.394 175 767.794 174.36 766.514 173.08ZM822.22 271C812.833 271 806.913 268.547 804.46 263.64C803.927 262.573 803.66 261.613 803.66 260.76V151.16H814.86V259.64C814.86 262.733 815.447 265.133 816.62 266.84C817.9 268.44 819.18 269.293 820.46 269.4L822.22 269.72H827.18V271H822.22Z" fill="black"/>
<path d="M469.201 487.84C469.201 490.32 468.934 492.467 468.401 494.28C467.868 496.093 467.141 497.593 466.221 498.78C465.301 499.967 464.221 500.853 462.981 501.44C461.754 502.013 460.441 502.3 459.041 502.3C457.641 502.3 456.328 502.013 455.101 501.44C453.874 500.853 452.801 499.967 451.881 498.78C450.961 497.593 450.234 496.093 449.701 494.28C449.181 492.467 448.921 490.32 448.921 487.84C448.921 485.36 449.181 483.213 449.701 481.4C450.234 479.587 450.961 478.087 451.881 476.9C452.801 475.713 453.874 474.833 455.101 474.26C456.328 473.673 457.641 473.38 459.041 473.38C460.441 473.38 461.754 473.673 462.981 474.26C464.221 474.833 465.301 475.713 466.221 476.9C467.141 478.087 467.868 479.587 468.401 481.4C468.934 483.213 469.201 485.36 469.201 487.84ZM467.201 487.84C467.201 485.547 466.981 483.587 466.541 481.96C466.101 480.333 465.508 479.007 464.761 477.98C464.028 476.94 463.161 476.18 462.161 475.7C461.174 475.22 460.134 474.98 459.041 474.98C457.948 474.98 456.908 475.22 455.921 475.7C454.934 476.18 454.068 476.94 453.321 477.98C452.574 479.007 451.981 480.333 451.541 481.96C451.101 483.587 450.881 485.547 450.881 487.84C450.881 490.147 451.101 492.113 451.541 493.74C451.981 495.353 452.574 496.68 453.321 497.72C454.068 498.747 454.934 499.5 455.921 499.98C456.908 500.447 457.948 500.68 459.041 500.68C460.134 500.68 461.174 500.447 462.161 499.98C463.161 499.5 464.028 498.747 464.761 497.72C465.508 496.68 466.101 495.353 466.541 493.74C466.981 492.113 467.201 490.147 467.201 487.84ZM482.264 500.8C483.344 500.8 484.324 500.653 485.204 500.36C486.097 500.053 486.864 499.627 487.504 499.08C488.144 498.52 488.637 497.853 488.984 497.08C489.331 496.307 489.504 495.447 489.504 494.5C489.504 493.26 489.277 492.227 488.824 491.4C488.371 490.573 487.791 489.913 487.084 489.42C486.377 488.927 485.597 488.58 484.744 488.38C483.891 488.167 483.064 488.06 482.264 488.06C481.464 488.06 480.637 488.167 479.784 488.38C478.931 488.58 478.151 488.927 477.444 489.42C476.737 489.913 476.157 490.573 475.704 491.4C475.251 492.227 475.024 493.26 475.024 494.5C475.024 495.447 475.197 496.307 475.544 497.08C475.891 497.853 476.377 498.52 477.004 499.08C477.644 499.627 478.411 500.053 479.304 500.36C480.197 500.653 481.184 500.8 482.264 500.8ZM475.944 480.62C475.944 481.38 476.064 482.113 476.304 482.82C476.557 483.527 476.944 484.16 477.464 484.72C477.984 485.267 478.637 485.707 479.424 486.04C480.224 486.36 481.171 486.52 482.264 486.52C483.344 486.52 484.277 486.36 485.064 486.04C485.864 485.707 486.524 485.267 487.044 484.72C487.564 484.16 487.944 483.527 488.184 482.82C488.437 482.113 488.564 481.38 488.564 480.62C488.564 479.807 488.424 479.053 488.144 478.36C487.864 477.653 487.451 477.04 486.904 476.52C486.371 476 485.711 475.593 484.924 475.3C484.151 475.007 483.264 474.86 482.264 474.86C481.264 474.86 480.371 475.007 479.584 475.3C478.797 475.593 478.131 476 477.584 476.52C477.051 477.04 476.644 477.653 476.364 478.36C476.084 479.053 475.944 479.807 475.944 480.62ZM485.284 487.22C486.191 487.42 487.017 487.72 487.764 488.12C488.524 488.52 489.177 489.02 489.724 489.62C490.271 490.22 490.697 490.927 491.004 491.74C491.311 492.553 491.464 493.48 491.464 494.52C491.464 495.72 491.237 496.8 490.784 497.76C490.331 498.72 489.697 499.54 488.884 500.22C488.084 500.9 487.117 501.42 485.984 501.78C484.864 502.14 483.624 502.32 482.264 502.32C480.904 502.32 479.657 502.14 478.524 501.78C477.404 501.42 476.437 500.9 475.624 500.22C474.824 499.54 474.197 498.72 473.744 497.76C473.291 496.8 473.064 495.72 473.064 494.52C473.064 493.48 473.217 492.553 473.524 491.74C473.831 490.927 474.251 490.22 474.784 489.62C475.331 489.02 475.977 488.52 476.724 488.12C477.484 487.72 478.317 487.42 479.224 487.22C478.397 486.98 477.664 486.653 477.024 486.24C476.384 485.827 475.844 485.333 475.404 484.76C474.977 484.187 474.651 483.553 474.424 482.86C474.197 482.153 474.084 481.4 474.084 480.6C474.084 479.6 474.271 478.66 474.644 477.78C475.031 476.9 475.577 476.133 476.284 475.48C476.991 474.827 477.844 474.313 478.844 473.94C479.857 473.567 480.997 473.38 482.264 473.38C483.517 473.38 484.644 473.567 485.644 473.94C486.657 474.313 487.517 474.827 488.224 475.48C488.944 476.133 489.491 476.9 489.864 477.78C490.251 478.66 490.444 479.6 490.444 480.6C490.444 481.4 490.331 482.153 490.104 482.86C489.877 483.553 489.544 484.187 489.104 484.76C488.664 485.32 488.124 485.813 487.484 486.24C486.844 486.653 486.111 486.98 485.284 487.22ZM508.927 492.36V477.54C508.927 477.313 508.934 477.067 508.947 476.8C508.974 476.533 509.001 476.26 509.027 475.98L496.787 492.36H508.927ZM515.787 492.36V493.4C515.787 493.547 515.741 493.667 515.647 493.76C515.567 493.84 515.434 493.88 515.247 493.88H510.607V502H508.927V493.88H495.547C495.347 493.88 495.194 493.84 495.087 493.76C494.981 493.667 494.907 493.547 494.867 493.4L494.687 492.46L508.907 473.66H510.607V492.36H515.787ZM528.65 500.74C529.797 500.74 530.83 500.56 531.75 500.2C532.67 499.84 533.45 499.347 534.09 498.72C534.744 498.08 535.244 497.327 535.59 496.46C535.937 495.58 536.11 494.627 536.11 493.6C536.11 492.52 535.937 491.547 535.59 490.68C535.257 489.8 534.777 489.06 534.15 488.46C533.537 487.847 532.804 487.38 531.95 487.06C531.097 486.727 530.15 486.56 529.11 486.56C527.937 486.56 526.884 486.767 525.95 487.18C525.03 487.58 524.25 488.107 523.61 488.76C522.97 489.4 522.484 490.133 522.15 490.96C521.817 491.787 521.65 492.62 521.65 493.46C521.65 494.513 521.81 495.487 522.13 496.38C522.464 497.273 522.93 498.047 523.53 498.7C524.13 499.34 524.864 499.84 525.73 500.2C526.597 500.56 527.57 500.74 528.65 500.74ZM525.37 484.72C524.957 485.267 524.577 485.78 524.23 486.26C523.884 486.74 523.57 487.213 523.29 487.68C524.077 486.867 525.01 486.233 526.09 485.78C527.17 485.313 528.35 485.08 529.63 485.08C530.844 485.08 531.964 485.28 532.99 485.68C534.017 486.08 534.897 486.647 535.63 487.38C536.377 488.1 536.957 488.98 537.37 490.02C537.797 491.047 538.01 492.2 538.01 493.48C538.01 494.76 537.777 495.94 537.31 497.02C536.857 498.1 536.217 499.033 535.39 499.82C534.577 500.607 533.597 501.22 532.45 501.66C531.304 502.1 530.044 502.32 528.67 502.32C527.35 502.32 526.144 502.107 525.05 501.68C523.957 501.253 523.017 500.64 522.23 499.84C521.457 499.04 520.857 498.067 520.43 496.92C520.004 495.76 519.79 494.453 519.79 493C519.79 491.893 520.07 490.647 520.63 489.26C521.19 487.86 522.11 486.293 523.39 484.56L531.11 474.16C531.337 473.853 531.677 473.7 532.13 473.7H533.81L525.37 484.72ZM553.893 489.32H563.193V490.94H553.893V489.32ZM587.977 488.48C589.11 488.48 590.124 488.287 591.017 487.9C591.91 487.513 592.657 487.007 593.257 486.38C593.87 485.753 594.337 485.053 594.657 484.28C594.977 483.493 595.137 482.7 595.137 481.9C595.137 480.873 594.97 479.933 594.637 479.08C594.304 478.227 593.837 477.5 593.237 476.9C592.637 476.287 591.924 475.813 591.097 475.48C590.284 475.133 589.39 474.96 588.417 474.96C587.364 474.96 586.404 475.127 585.537 475.46C584.67 475.793 583.924 476.26 583.297 476.86C582.684 477.46 582.204 478.18 581.857 479.02C581.51 479.847 581.337 480.76 581.337 481.76C581.337 482.8 581.49 483.74 581.797 484.58C582.117 485.407 582.564 486.113 583.137 486.7C583.724 487.273 584.424 487.713 585.237 488.02C586.064 488.327 586.977 488.48 587.977 488.48ZM591.757 490.32C592.157 489.747 592.53 489.213 592.877 488.72C593.224 488.213 593.537 487.72 593.817 487.24C593.044 488.107 592.104 488.78 590.997 489.26C589.89 489.727 588.71 489.96 587.457 489.96C586.297 489.96 585.224 489.773 584.237 489.4C583.264 489.013 582.417 488.467 581.697 487.76C580.977 487.053 580.417 486.207 580.017 485.22C579.617 484.22 579.417 483.107 579.417 481.88C579.417 480.667 579.644 479.547 580.097 478.52C580.55 477.48 581.177 476.58 581.977 475.82C582.777 475.06 583.724 474.467 584.817 474.04C585.924 473.6 587.13 473.38 588.437 473.38C589.69 473.38 590.837 473.593 591.877 474.02C592.93 474.447 593.83 475.053 594.577 475.84C595.337 476.613 595.924 477.547 596.337 478.64C596.764 479.72 596.977 480.927 596.977 482.26C596.977 482.993 596.897 483.693 596.737 484.36C596.59 485.027 596.364 485.693 596.057 486.36C595.764 487.027 595.404 487.713 594.977 488.42C594.55 489.113 594.064 489.86 593.517 490.66L586.097 501.54C585.897 501.847 585.57 502 585.117 502H583.377L591.757 490.32ZM619.94 500.52V502H605.34V500.52H611.84V477.56C611.84 477.107 611.86 476.627 611.9 476.12L605.66 481.66C605.473 481.82 605.287 481.88 605.1 481.84C604.913 481.8 604.767 481.72 604.66 481.6L604.08 480.8L612.26 473.58H613.76V500.52H619.94ZM638.263 492.36V477.54C638.263 477.313 638.27 477.067 638.283 476.8C638.31 476.533 638.336 476.26 638.363 475.98L626.123 492.36H638.263ZM645.123 492.36V493.4C645.123 493.547 645.076 493.667 644.983 493.76C644.903 493.84 644.77 493.88 644.583 493.88H639.943V502H638.263V493.88H624.883C624.683 493.88 624.53 493.84 624.423 493.76C624.316 493.667 624.243 493.547 624.203 493.4L624.023 492.46L638.243 473.66H639.943V492.36H645.123ZM660.026 489.32H669.326V490.94H660.026V489.32ZM694.11 488.48C695.243 488.48 696.256 488.287 697.15 487.9C698.043 487.513 698.79 487.007 699.39 486.38C700.003 485.753 700.47 485.053 700.79 484.28C701.11 483.493 701.27 482.7 701.27 481.9C701.27 480.873 701.103 479.933 700.77 479.08C700.436 478.227 699.97 477.5 699.37 476.9C698.77 476.287 698.056 475.813 697.23 475.48C696.416 475.133 695.523 474.96 694.55 474.96C693.496 474.96 692.536 475.127 691.67 475.46C690.803 475.793 690.056 476.26 689.43 476.86C688.816 477.46 688.336 478.18 687.99 479.02C687.643 479.847 687.47 480.76 687.47 481.76C687.47 482.8 687.623 483.74 687.93 484.58C688.25 485.407 688.696 486.113 689.27 486.7C689.856 487.273 690.556 487.713 691.37 488.02C692.196 488.327 693.11 488.48 694.11 488.48ZM697.89 490.32C698.29 489.747 698.663 489.213 699.01 488.72C699.356 488.213 699.67 487.72 699.95 487.24C699.176 488.107 698.236 488.78 697.13 489.26C696.023 489.727 694.843 489.96 693.59 489.96C692.43 489.96 691.356 489.773 690.37 489.4C689.396 489.013 688.55 488.467 687.83 487.76C687.11 487.053 686.55 486.207 686.15 485.22C685.75 484.22 685.55 483.107 685.55 481.88C685.55 480.667 685.776 479.547 686.23 478.52C686.683 477.48 687.31 476.58 688.11 475.82C688.91 475.06 689.856 474.467 690.95 474.04C692.056 473.6 693.263 473.38 694.57 473.38C695.823 473.38 696.97 473.593 698.01 474.02C699.063 474.447 699.963 475.053 700.71 475.84C701.47 476.613 702.056 477.547 702.47 478.64C702.896 479.72 703.11 480.927 703.11 482.26C703.11 482.993 703.03 483.693 702.87 484.36C702.723 485.027 702.496 485.693 702.19 486.36C701.896 487.027 701.536 487.713 701.11 488.42C700.683 489.113 700.196 489.86 699.65 490.66L692.23 501.54C692.03 501.847 691.703 502 691.25 502H689.51L697.89 490.32ZM717.713 500.74C718.859 500.74 719.893 500.56 720.813 500.2C721.733 499.84 722.513 499.347 723.153 498.72C723.806 498.08 724.306 497.327 724.653 496.46C724.999 495.58 725.173 494.627 725.173 493.6C725.173 492.52 724.999 491.547 724.653 490.68C724.319 489.8 723.839 489.06 723.213 488.46C722.599 487.847 721.866 487.38 721.013 487.06C720.159 486.727 719.213 486.56 718.173 486.56C716.999 486.56 715.946 486.767 715.013 487.18C714.093 487.58 713.313 488.107 712.673 488.76C712.033 489.4 711.546 490.133 711.213 490.96C710.879 491.787 710.713 492.62 710.713 493.46C710.713 494.513 710.873 495.487 711.193 496.38C711.526 497.273 711.993 498.047 712.593 498.7C713.193 499.34 713.926 499.84 714.793 500.2C715.659 500.56 716.633 500.74 717.713 500.74ZM714.433 484.72C714.019 485.267 713.639 485.78 713.293 486.26C712.946 486.74 712.633 487.213 712.353 487.68C713.139 486.867 714.073 486.233 715.153 485.78C716.233 485.313 717.413 485.08 718.693 485.08C719.906 485.08 721.026 485.28 722.053 485.68C723.079 486.08 723.959 486.647 724.693 487.38C725.439 488.1 726.019 488.98 726.433 490.02C726.859 491.047 727.073 492.2 727.073 493.48C727.073 494.76 726.839 495.94 726.373 497.02C725.919 498.1 725.279 499.033 724.453 499.82C723.639 500.607 722.659 501.22 721.513 501.66C720.366 502.1 719.106 502.32 717.733 502.32C716.413 502.32 715.206 502.107 714.113 501.68C713.019 501.253 712.079 500.64 711.293 499.84C710.519 499.04 709.919 498.067 709.493 496.92C709.066 495.76 708.853 494.453 708.853 493C708.853 491.893 709.133 490.647 709.693 489.26C710.253 487.86 711.173 486.293 712.453 484.56L720.173 474.16C720.399 473.853 720.739 473.7 721.193 473.7H722.873L714.433 484.72ZM740.936 500.8C742.016 500.8 742.996 500.653 743.876 500.36C744.769 500.053 745.536 499.627 746.176 499.08C746.816 498.52 747.309 497.853 747.656 497.08C748.003 496.307 748.176 495.447 748.176 494.5C748.176 493.26 747.949 492.227 747.496 491.4C747.043 490.573 746.463 489.913 745.756 489.42C745.049 488.927 744.269 488.58 743.416 488.38C742.563 488.167 741.736 488.06 740.936 488.06C740.136 488.06 739.309 488.167 738.456 488.38C737.603 488.58 736.823 488.927 736.116 489.42C735.409 489.913 734.829 490.573 734.376 491.4C733.923 492.227 733.696 493.26 733.696 494.5C733.696 495.447 733.869 496.307 734.216 497.08C734.563 497.853 735.049 498.52 735.676 499.08C736.316 499.627 737.083 500.053 737.976 500.36C738.869 500.653 739.856 500.8 740.936 500.8ZM734.616 480.62C734.616 481.38 734.736 482.113 734.976 482.82C735.229 483.527 735.616 484.16 736.136 484.72C736.656 485.267 737.309 485.707 738.096 486.04C738.896 486.36 739.843 486.52 740.936 486.52C742.016 486.52 742.949 486.36 743.736 486.04C744.536 485.707 745.196 485.267 745.716 484.72C746.236 484.16 746.616 483.527 746.856 482.82C747.109 482.113 747.236 481.38 747.236 480.62C747.236 479.807 747.096 479.053 746.816 478.36C746.536 477.653 746.123 477.04 745.576 476.52C745.043 476 744.383 475.593 743.596 475.3C742.823 475.007 741.936 474.86 740.936 474.86C739.936 474.86 739.043 475.007 738.256 475.3C737.469 475.593 736.803 476 736.256 476.52C735.723 477.04 735.316 477.653 735.036 478.36C734.756 479.053 734.616 479.807 734.616 480.62ZM743.956 487.22C744.863 487.42 745.689 487.72 746.436 488.12C747.196 488.52 747.849 489.02 748.396 489.62C748.943 490.22 749.369 490.927 749.676 491.74C749.983 492.553 750.136 493.48 750.136 494.52C750.136 495.72 749.909 496.8 749.456 497.76C749.003 498.72 748.369 499.54 747.556 500.22C746.756 500.9 745.789 501.42 744.656 501.78C743.536 502.14 742.296 502.32 740.936 502.32C739.576 502.32 738.329 502.14 737.196 501.78C736.076 501.42 735.109 500.9 734.296 500.22C733.496 499.54 732.869 498.72 732.416 497.76C731.963 496.8 731.736 495.72 731.736 494.52C731.736 493.48 731.889 492.553 732.196 491.74C732.503 490.927 732.923 490.22 733.456 489.62C734.003 489.02 734.649 488.52 735.396 488.12C736.156 487.72 736.989 487.42 737.896 487.22C737.069 486.98 736.336 486.653 735.696 486.24C735.056 485.827 734.516 485.333 734.076 484.76C733.649 484.187 733.323 483.553 733.096 482.86C732.869 482.153 732.756 481.4 732.756 480.6C732.756 479.6 732.943 478.66 733.316 477.78C733.703 476.9 734.249 476.133 734.956 475.48C735.663 474.827 736.516 474.313 737.516 473.94C738.529 473.567 739.669 473.38 740.936 473.38C742.189 473.38 743.316 473.567 744.316 473.94C745.329 474.313 746.189 474.827 746.896 475.48C747.616 476.133 748.163 476.9 748.536 477.78C748.923 478.66 749.116 479.6 749.116 480.6C749.116 481.4 749.003 482.153 748.776 482.86C748.549 483.553 748.216 484.187 747.776 484.76C747.336 485.32 746.796 485.813 746.156 486.24C745.516 486.653 744.783 486.98 743.956 487.22Z" fill="black"/>
<path d="M768.794 317.514H769.774V322.736C769.933 322.307 770.227 321.901 770.656 321.518C771.086 321.135 771.571 320.944 772.112 320.944C774.007 320.944 774.954 322.055 774.954 324.276C774.954 326.796 773.732 328.056 771.286 328.056C770.568 328.056 769.737 327.939 768.794 327.706V317.514ZM772.098 321.056C771.52 321.056 770.997 321.308 770.53 321.812C770.064 322.307 769.812 322.755 769.774 323.156V327.622C770.344 327.837 770.843 327.944 771.272 327.944C773.074 327.944 773.974 326.717 773.974 324.262C773.974 322.125 773.349 321.056 772.098 321.056ZM777.366 330.506C777.067 331.169 776.699 331.5 776.26 331.5C776.064 331.5 775.835 331.467 775.574 331.402V331.29C775.789 331.346 775.98 331.374 776.148 331.374C776.624 331.374 776.988 331.085 777.24 330.506L778.416 328H778.402L775.798 321H776.778L778.948 326.838L781.09 322.4C781.202 322.204 781.258 321.971 781.258 321.7C781.258 321.429 781.183 321.224 781.034 321.084L781.118 321C781.155 321.019 781.202 321.075 781.258 321.168C781.323 321.261 781.361 321.345 781.37 321.42C781.389 321.495 781.398 321.565 781.398 321.63C781.398 321.882 781.342 322.139 781.23 322.4L778.542 328L777.366 330.506ZM787.168 328H786.986V318.2H787.462L793.286 327.258V318.2H793.468V328H792.446L787.168 319.88V328ZM796.363 328C795.98 328 795.686 327.916 795.481 327.748C795.285 327.58 795.182 327.412 795.173 327.244L795.159 327.006V321H796.139V327.006C796.139 327.277 796.19 327.487 796.293 327.636C796.405 327.776 796.512 327.851 796.615 327.86L796.783 327.888H797.217V328H796.363ZM795.243 319.432C795.131 319.32 795.075 319.18 795.075 319.012C795.075 318.844 795.131 318.704 795.243 318.592C795.355 318.471 795.495 318.41 795.663 318.41C795.831 318.41 795.971 318.471 796.083 318.592C796.204 318.704 796.265 318.844 796.265 319.012C796.265 319.18 796.204 319.32 796.083 319.432C795.971 319.544 795.831 319.6 795.663 319.6C795.495 319.6 795.355 319.544 795.243 319.432ZM798.594 324.584C798.594 325.741 798.795 326.591 799.196 327.132C799.607 327.673 800.143 327.944 800.806 327.944C801.739 327.944 802.57 327.804 803.298 327.524L803.34 327.622C802.593 327.911 801.749 328.056 800.806 328.056C799.873 328.056 799.112 327.776 798.524 327.216C797.936 326.656 797.642 325.793 797.642 324.626C797.642 323.459 797.95 322.554 798.566 321.91C799.182 321.266 799.966 320.944 800.918 320.944C801.683 320.944 802.327 321.173 802.85 321.63C803.373 322.087 803.634 322.764 803.634 323.66C803.634 323.707 803.634 323.753 803.634 323.8H798.636C798.608 324.052 798.594 324.313 798.594 324.584ZM802.682 323.688C802.673 322.792 802.5 322.129 802.164 321.7C801.828 321.271 801.394 321.056 800.862 321.056C800.33 321.056 799.854 321.289 799.434 321.756C799.023 322.223 798.762 322.867 798.65 323.688H802.682ZM805.58 324.584C805.58 325.741 805.781 326.591 806.182 327.132C806.593 327.673 807.13 327.944 807.792 327.944C808.726 327.944 809.556 327.804 810.284 327.524L810.326 327.622C809.58 327.911 808.735 328.056 807.792 328.056C806.859 328.056 806.098 327.776 805.51 327.216C804.922 326.656 804.628 325.793 804.628 324.626C804.628 323.459 804.936 322.554 805.552 321.91C806.168 321.266 806.952 320.944 807.904 320.944C808.67 320.944 809.314 321.173 809.836 321.63C810.359 322.087 810.62 322.764 810.62 323.66C810.62 323.707 810.62 323.753 810.62 323.8H805.622C805.594 324.052 805.58 324.313 805.58 324.584ZM809.668 323.688C809.659 322.792 809.486 322.129 809.15 321.7C808.814 321.271 808.38 321.056 807.848 321.056C807.316 321.056 806.84 321.289 806.42 321.756C806.01 322.223 805.748 322.867 805.636 323.688H809.668ZM817.001 328C816.618 328 816.324 327.916 816.119 327.748C815.923 327.58 815.82 327.412 815.811 327.244L815.797 327.006V322.61C815.797 321.873 815.606 321.401 815.223 321.196C815.027 321.103 814.784 321.056 814.495 321.056C813.898 321.056 813.361 321.294 812.885 321.77C812.409 322.237 812.171 322.657 812.171 323.03V328H811.191V321H812.171V322.596C812.33 322.195 812.624 321.821 813.053 321.476C813.482 321.121 813.954 320.944 814.467 320.944C814.98 320.944 815.396 320.995 815.713 321.098C816.04 321.191 816.278 321.327 816.427 321.504C816.66 321.793 816.777 322.167 816.777 322.624V327.006C816.777 327.277 816.828 327.487 816.931 327.636C817.043 327.776 817.155 327.851 817.267 327.86L817.421 327.888H817.855V328H817.001Z" fill="black"/>
</g>
<defs>
<filter id="filter0_f_1_2" x="420.963" y="-270.397" width="827.23" height="896.913" filterUnits="userSpaceOnUse" color-interpolation-filters="sRGB">
<feFlood flood-opacity="0" result="BackgroundImageFix"/>
<feBlend mode="normal" in="SourceGraphic" in2="BackgroundImageFix" result="shape"/>
<feGaussianBlur stdDeviation="78" result="effect1_foregroundBlur_1_2"/>
</filter>
<filter id="filter1_f_1_2" x="666.317" y="-126.463" width="993.481" height="1241.86" filterUnits="userSpaceOnUse" color-interpolation-filters="sRGB">
<feFlood flood-opacity="0" result="BackgroundImageFix"/>
<feBlend mode="normal" in="SourceGraphic" in2="BackgroundImageFix" result="shape"/>
<feGaussianBlur stdDeviation="115" result="effect1_foregroundBlur_1_2"/>
</filter>
<filter id="filter2_f_1_2" x="-410" y="-64" width="1165" height="1193" filterUnits="userSpaceOnUse" color-interpolation-filters="sRGB">
<feFlood flood-opacity="0" result="BackgroundImageFix"/>
<feBlend mode="normal" in="SourceGraphic" in2="BackgroundImageFix" result="shape"/>
<feGaussianBlur stdDeviation="86" result="effect1_foregroundBlur_1_2"/>
</filter>
<filter id="filter3_f_1_2" x="754" y="26" width="667.329" height="489.143" filterUnits="userSpaceOnUse" color-interpolation-filters="sRGB">
<feFlood flood-opacity="0" result="BackgroundImageFix"/>
<feBlend mode="normal" in="SourceGraphic" in2="BackgroundImageFix" result="shape"/>
<feGaussianBlur stdDeviation="1" result="effect1_foregroundBlur_1_2"/>
</filter>
<filter id="filter4_f_1_2" x="-159.897" y="278.458" width="442.959" height="419.858" filterUnits="userSpaceOnUse" color-interpolation-filters="sRGB">
<feFlood flood-opacity="0" result="BackgroundImageFix"/>
<feBlend mode="normal" in="SourceGraphic" in2="BackgroundImageFix" result="shape"/>
<feGaussianBlur stdDeviation="2" result="effect1_foregroundBlur_1_2"/>
</filter>
<radialGradient id="paint0_radial_1_2" cx="0" cy="0" r="1" gradientUnits="userSpaceOnUse" gradientTransform="translate(366.5 269) rotate(37.4846) scale(2059.82 3923.46)">
<stop stop-color="#FABBD5" stop-opacity="0.84"/>
<stop offset="1" stop-color="white" stop-opacity="0"/>
</radialGradient>
<linearGradient id="paint1_linear_1_2" x1="1222.5" y1="51" x2="920.5" y2="513" gradientUnits="userSpaceOnUse">
<stop stop-color="#FCBDB1"/>
<stop offset="1" stop-color="#FCBDB1" stop-opacity="0"/>
</linearGradient>
<linearGradient id="paint2_linear_1_2" x1="-160.275" y1="633.081" x2="181.769" y2="312.784" gradientUnits="userSpaceOnUse">
<stop stop-color="#F3A7ED"/>
<stop offset="1" stop-color="#FCBDB1" stop-opacity="0.67"/>
</linearGradient>
<linearGradient id="paint3_linear_1_2" x1="441.5" y1="-273.5" x2="459" y2="173.5" gradientUnits="userSpaceOnUse">
<stop stop-color="#EA8EE2"/>
<stop offset="1" stop-color="#C4C4C4" stop-opacity="0"/>
</linearGradient>
<clipPath id="clip0_1_2">
<rect width="1200" height="630" fill="white"/>
</clipPath>
</defs>
</svg>
