<svg width="564" height="238" viewBox="0 0 564 238" fill="none" xmlns="http://www.w3.org/2000/svg">
<rect x="125" y="64" width="22" height="174" fill="#E8E8E8"/>
<rect x="147" width="23" height="238" fill="#E8E8E8"/>
<rect x="170" y="116" width="25" height="122" fill="#E8E8E8"/>
<rect x="195" y="84" width="25" height="154" fill="#E8E8E8"/>
<rect x="245" y="150" width="25" height="88" fill="#E8E8E8"/>
<rect x="270" y="116" width="25" height="122" fill="#E8E8E8"/>
<rect x="295" y="166" width="25" height="72" fill="#E8E8E8"/>
<rect x="317" y="190" width="25" height="48" fill="#E8E8E8"/>
<rect x="342" y="205" width="25" height="33" fill="#E8E8E8"/>
<rect x="367" y="218" width="25" height="20" fill="#E8E8E8"/>
<rect x="392" y="218" width="25" height="20" fill="#E8E8E8"/>
<rect x="417" y="205" width="25" height="33" fill="#E8E8E8"/>
<rect x="442" y="156" width="25" height="82" fill="#E8E8E8"/>
<rect x="467" y="182" width="25" height="56" fill="#E8E8E8"/>
<rect x="514" y="211" width="25" height="27" fill="#E8E8E8"/>
<rect x="539" y="233" width="16" height="5" fill="#E8E8E8"/>
<rect x="555" y="236" width="9" height="2" fill="#E8E8E8"/>
<rect x="492" y="218" width="11" height="20" fill="#E8E8E8"/>
<rect x="503" y="226" width="11" height="12" fill="#E8E8E8"/>
<rect x="399" y="206" width="11" height="12" fill="#E8E8E8"/>
<rect x="50" y="182" width="25" height="56" fill="#E8E8E8"/>
<rect x="25" y="204" width="25" height="34" fill="#E8E8E8"/>
<rect y="223" width="25" height="15" fill="#E8E8E8"/>
<rect x="220" y="183" width="25" height="55" fill="#E8E8E8"/>
<rect x="100" y="158" width="25" height="80" fill="#E8E8E8"/>
<rect x="75" y="129" width="25" height="109" fill="#E8E8E8"/>
</svg>
